<svg xmlns="http://www.w3.org/2000/svg" viewBox="0 0 284.12 578.54"><defs><style>.cls-1{fill:#78d6cf;}.cls-2{fill:#fff;}.cls-3{fill:#414042;}.cls-4{fill:#58595b;}.cls-5{fill:#c1c4c6;}</style></defs><title>8_8_led_matrix_display</title><g id="Layer_2" data-name="Layer 2"><g id="flat"><rect class="cls-1" y="36.32" width="284.12" height="483.98" rx="17.92"/><circle class="cls-2" cx="20.05" cy="56.25" r="13.19"/><circle class="cls-2" cx="264.07" cy="56.25" r="13.19"/><circle class="cls-2" cx="20.05" cy="500.37" r="13.19"/><circle class="cls-2" cx="264.07" cy="500.37" r="13.19"/><rect class="cls-3" y="97.4" width="284.12" height="284.12"/><rect class="cls-3" y="407.09" width="284.12" height="49.88"/><circle class="cls-2" cx="25.91" cy="123.31" r="11.16"/><circle class="cls-2" cx="59.1" cy="123.31" r="11.16"/><circle class="cls-2" cx="92.28" cy="123.31" r="11.16"/><circle class="cls-2" cx="125.47" cy="123.31" r="11.16"/><circle class="cls-2" cx="158.65" cy="123.31" r="11.16"/><circle class="cls-2" cx="191.84" cy="123.31" r="11.16"/><circle class="cls-2" cx="225.02" cy="123.31" r="11.16"/><circle class="cls-2" cx="258.2" cy="123.31" r="11.16"/><circle class="cls-2" cx="25.91" cy="156.5" r="11.16"/><circle class="cls-2" cx="59.1" cy="156.5" r="11.16"/><circle class="cls-2" cx="92.28" cy="156.5" r="11.16"/><circle class="cls-2" cx="125.47" cy="156.5" r="11.16"/><circle class="cls-2" cx="158.65" cy="156.5" r="11.16"/><circle class="cls-2" cx="191.84" cy="156.5" r="11.16"/><circle class="cls-2" cx="225.02" cy="156.5" r="11.16"/><circle class="cls-2" cx="258.2" cy="156.5" r="11.16"/><circle class="cls-2" cx="25.91" cy="189.68" r="11.16"/><circle class="cls-2" cx="59.1" cy="189.68" r="11.16"/><circle class="cls-2" cx="92.28" cy="189.68" r="11.16"/><circle class="cls-2" cx="125.47" cy="189.68" r="11.16"/><circle class="cls-2" cx="158.65" cy="189.68" r="11.16"/><circle class="cls-2" cx="191.84" cy="189.68" r="11.16"/><circle class="cls-2" cx="225.02" cy="189.68" r="11.16"/><circle class="cls-2" cx="258.2" cy="189.68" r="11.16"/><circle class="cls-2" cx="25.91" cy="222.86" r="11.16"/><circle class="cls-2" cx="59.1" cy="222.86" r="11.16"/><circle class="cls-2" cx="92.28" cy="222.86" r="11.16"/><circle class="cls-2" cx="125.47" cy="222.86" r="11.16"/><circle class="cls-2" cx="158.65" cy="222.86" r="11.16"/><circle class="cls-2" cx="191.84" cy="222.86" r="11.16"/><circle class="cls-2" cx="225.02" cy="222.86" r="11.16"/><circle class="cls-2" cx="258.2" cy="222.86" r="11.16"/><circle class="cls-2" cx="25.91" cy="256.05" r="11.16"/><circle class="cls-2" cx="59.1" cy="256.05" r="11.16"/><circle class="cls-2" cx="92.28" cy="256.05" r="11.16"/><circle class="cls-2" cx="125.47" cy="256.05" r="11.16"/><circle class="cls-2" cx="158.65" cy="256.05" r="11.16"/><circle class="cls-2" cx="191.84" cy="256.05" r="11.16"/><circle class="cls-2" cx="225.02" cy="256.05" r="11.16"/><circle class="cls-2" cx="258.2" cy="256.05" r="11.16"/><circle class="cls-2" cx="25.91" cy="289.23" r="11.16"/><circle class="cls-2" cx="59.1" cy="289.23" r="11.16"/><circle class="cls-2" cx="92.28" cy="289.23" r="11.16"/><circle class="cls-2" cx="125.47" cy="289.23" r="11.16"/><circle class="cls-2" cx="158.65" cy="289.23" r="11.16"/><circle class="cls-2" cx="191.84" cy="289.23" r="11.16"/><circle class="cls-2" cx="225.02" cy="289.23" r="11.16"/><circle class="cls-2" cx="258.2" cy="289.23" r="11.16"/><circle class="cls-2" cx="25.91" cy="322.42" r="11.16"/><circle class="cls-2" cx="59.1" cy="322.42" r="11.16"/><circle class="cls-2" cx="92.28" cy="322.42" r="11.16"/><circle class="cls-2" cx="125.47" cy="322.42" r="11.16"/><circle class="cls-2" cx="158.65" cy="322.42" r="11.16"/><circle class="cls-2" cx="191.84" cy="322.42" r="11.16"/><circle class="cls-2" cx="225.02" cy="322.42" r="11.16"/><circle class="cls-2" cx="258.2" cy="322.42" r="11.16"/><circle class="cls-2" cx="25.91" cy="355.6" r="11.16"/><circle class="cls-2" cx="59.1" cy="355.6" r="11.16"/><circle class="cls-2" cx="92.28" cy="355.6" r="11.16"/><circle class="cls-2" cx="125.47" cy="355.6" r="11.16"/><circle class="cls-2" cx="158.65" cy="355.6" r="11.16"/><circle class="cls-2" cx="191.84" cy="355.6" r="11.16"/><circle class="cls-2" cx="225.02" cy="355.6" r="11.16"/><circle class="cls-2" cx="258.2" cy="355.6" r="11.16"/><rect class="cls-4" x="56.41" y="481.14" width="171.3" height="39.14"/><rect class="cls-5" x="104.29" y="502.57" width="12.91" height="75.97"/><rect class="cls-5" x="72.97" y="502.57" width="12.91" height="75.97"/><rect class="cls-5" x="135.6" y="502.57" width="12.91" height="75.97"/><rect class="cls-5" x="166.92" y="502.57" width="12.91" height="75.97"/><rect class="cls-5" x="198.23" y="502.57" width="12.91" height="75.97"/><rect class="cls-4" x="56.41" y="58.25" width="171.3" height="39.14" transform="translate(284.12 155.65) rotate(180)"/><rect class="cls-5" x="166.92" width="12.91" height="75.97" transform="translate(346.75 75.97) rotate(180)"/><rect class="cls-5" x="198.23" width="12.91" height="75.97" transform="translate(409.38 75.97) rotate(180)"/><rect class="cls-5" x="135.6" width="12.91" height="75.97" transform="translate(284.12 75.97) rotate(180)"/><rect class="cls-5" x="104.29" width="12.91" height="75.97" transform="translate(221.49 75.97) rotate(180)"/><rect class="cls-5" x="72.97" width="12.91" height="75.97" transform="translate(158.86 75.97) rotate(180)"/></g></g></svg>