<svg xmlns="http://www.w3.org/2000/svg" viewBox="0 0 284.12 284.12"><defs><style>.cls-1{fill:#414042;}.cls-2{fill:#fff;}</style></defs><title>8_8_led_matrix_display_unit</title><g id="Layer_2" data-name="Layer 2"><g id="flat"><rect class="cls-1" width="284.12" height="284.12"/><circle class="cls-2" cx="25.91" cy="25.91" r="11.16"/><circle class="cls-2" cx="59.1" cy="25.91" r="11.16"/><circle class="cls-2" cx="92.28" cy="25.91" r="11.16"/><circle class="cls-2" cx="125.47" cy="25.91" r="11.16"/><circle class="cls-2" cx="158.65" cy="25.91" r="11.16"/><circle class="cls-2" cx="191.84" cy="25.91" r="11.16"/><circle class="cls-2" cx="225.02" cy="25.91" r="11.16"/><circle class="cls-2" cx="258.2" cy="25.91" r="11.16"/><circle class="cls-2" cx="25.91" cy="59.1" r="11.16"/><circle class="cls-2" cx="59.1" cy="59.1" r="11.16"/><circle class="cls-2" cx="92.28" cy="59.1" r="11.16"/><circle class="cls-2" cx="125.47" cy="59.1" r="11.16"/><circle class="cls-2" cx="158.65" cy="59.1" r="11.16"/><circle class="cls-2" cx="191.84" cy="59.1" r="11.16"/><circle class="cls-2" cx="225.02" cy="59.1" r="11.16"/><circle class="cls-2" cx="258.2" cy="59.1" r="11.16"/><circle class="cls-2" cx="25.91" cy="92.28" r="11.16"/><circle class="cls-2" cx="59.1" cy="92.28" r="11.16"/><circle class="cls-2" cx="92.28" cy="92.28" r="11.16"/><circle class="cls-2" cx="125.47" cy="92.28" r="11.16"/><circle class="cls-2" cx="158.65" cy="92.28" r="11.16"/><circle class="cls-2" cx="191.84" cy="92.28" r="11.16"/><circle class="cls-2" cx="225.02" cy="92.28" r="11.16"/><circle class="cls-2" cx="258.2" cy="92.28" r="11.16"/><circle class="cls-2" cx="25.91" cy="125.47" r="11.16"/><circle class="cls-2" cx="59.1" cy="125.47" r="11.16"/><circle class="cls-2" cx="92.28" cy="125.47" r="11.16"/><circle class="cls-2" cx="125.47" cy="125.47" r="11.16"/><circle class="cls-2" cx="158.65" cy="125.47" r="11.16"/><circle class="cls-2" cx="191.84" cy="125.47" r="11.16"/><circle class="cls-2" cx="225.02" cy="125.47" r="11.16"/><circle class="cls-2" cx="258.2" cy="125.47" r="11.16"/><circle class="cls-2" cx="25.91" cy="158.65" r="11.16"/><circle class="cls-2" cx="59.1" cy="158.65" r="11.16"/><circle class="cls-2" cx="92.28" cy="158.65" r="11.16"/><circle class="cls-2" cx="125.47" cy="158.65" r="11.16"/><circle class="cls-2" cx="158.65" cy="158.65" r="11.16"/><circle class="cls-2" cx="191.84" cy="158.65" r="11.16"/><circle class="cls-2" cx="225.02" cy="158.65" r="11.16"/><circle class="cls-2" cx="258.2" cy="158.65" r="11.16"/><circle class="cls-2" cx="25.91" cy="191.84" r="11.16"/><circle class="cls-2" cx="59.1" cy="191.84" r="11.16"/><circle class="cls-2" cx="92.28" cy="191.84" r="11.16"/><circle class="cls-2" cx="125.47" cy="191.84" r="11.16"/><circle class="cls-2" cx="158.65" cy="191.84" r="11.16"/><circle class="cls-2" cx="191.84" cy="191.84" r="11.16"/><circle class="cls-2" cx="225.02" cy="191.84" r="11.16"/><circle class="cls-2" cx="258.2" cy="191.84" r="11.16"/><circle class="cls-2" cx="25.91" cy="225.02" r="11.16"/><circle class="cls-2" cx="59.1" cy="225.02" r="11.16"/><circle class="cls-2" cx="92.28" cy="225.02" r="11.16"/><circle class="cls-2" cx="125.47" cy="225.02" r="11.16"/><circle class="cls-2" cx="158.65" cy="225.02" r="11.16"/><circle class="cls-2" cx="191.84" cy="225.02" r="11.16"/><circle class="cls-2" cx="225.02" cy="225.02" r="11.16"/><circle class="cls-2" cx="258.2" cy="225.02" r="11.16"/><circle class="cls-2" cx="25.91" cy="258.2" r="11.16"/><circle class="cls-2" cx="59.1" cy="258.2" r="11.16"/><circle class="cls-2" cx="92.28" cy="258.2" r="11.16"/><circle class="cls-2" cx="125.47" cy="258.2" r="11.16"/><circle class="cls-2" cx="158.65" cy="258.2" r="11.16"/><circle class="cls-2" cx="191.84" cy="258.2" r="11.16"/><circle class="cls-2" cx="225.02" cy="258.2" r="11.16"/><circle class="cls-2" cx="258.2" cy="258.2" r="11.16"/></g></g></svg>