<svg xmlns="http://www.w3.org/2000/svg" viewBox="0 0 462.29 674.05"><defs><style>.cls-1{fill:#78d6cf;}.cls-2,.cls-8{fill:#fff;}.cls-3{fill:#414042;}.cls-4{fill:#727272;}.cls-5{fill:#61b8bc;}.cls-6{fill:#e3e4e5;}.cls-7{opacity:0.9;}.cls-8{fill-rule:evenodd;}</style></defs><title>arduino_uno</title><g id="Layer_2" data-name="Layer 2"><g id="flat"><polygon class="cls-1" points="349.63 635.08 462.29 635.08 462.29 65.58 0 65.58 0 635.08 23.96 635.08 63.38 673.71 309.87 674.04 349.63 635.08"/><circle class="cls-2" cx="300.12" cy="635.31" r="19.43"/><circle class="cls-2" cx="76.58" cy="635.31" r="19.43"/><circle class="cls-2" cx="29.93" cy="196.27" r="19.43"/><circle class="cls-2" cx="420.71" cy="176.84" r="19.43"/><rect class="cls-3" x="-69.28" y="371.28" width="181.54" height="42.97" transform="translate(414.25 371.28) rotate(90)"/><rect class="cls-3" x="355.05" y="528.06" width="172.91" height="41.57" transform="translate(990.35 107.35) rotate(90)"/><rect class="cls-3" x="-43.34" y="549" width="129.65" height="42.97" transform="translate(591.97 549) rotate(90)"/><rect class="cls-3" x="328.97" y="307.05" width="225.06" height="41.57" transform="translate(769.33 -113.67) rotate(90)"/><rect class="cls-4" x="28.11" y="67.4" width="82.26" height="78.62" transform="translate(175.95 37.48) rotate(90)"/><rect class="cls-3" x="54.27" y="11.31" width="29.93" height="78.62" transform="translate(119.86 -18.62) rotate(90)"/><rect class="cls-3" x="23.14" y="456.55" width="265.49" height="92.01" transform="translate(658.44 346.68) rotate(90)"/><rect class="cls-5" x="275.31" y="190.5" width="54.25" height="54.25" transform="translate(520.05 -84.81) rotate(90)"/><rect class="cls-6" x="255.63" y="19.68" width="147.85" height="108.49" transform="translate(403.47 -255.63) rotate(90)"/><rect class="cls-5" x="172.47" y="95.42" width="35.84" height="69.01" transform="translate(320.32 -60.46) rotate(90)"/><rect class="cls-6" x="59.73" y="176.84" width="72.64" height="72.64" rx="36.32" transform="translate(309.21 117.11) rotate(90)"/><rect class="cls-6" x="59.73" y="258.46" width="72.64" height="72.64" rx="36.32" transform="translate(390.83 198.74) rotate(90)"/><g class="cls-7"><path class="cls-8" d="M323.58,286.4c-69.68,0-95.62,95.79-24.67,143.12-73.56,49-42.73,141,24.77,141s100-91.51,24.59-141c74.5-46.89,45-143.12-24.69-143.12Zm0,25.16c50.27,0,66.14,71.05,0,104.1-63.69-33.7-50.28-104.1,0-104.1Zm0,131.81c67.45,29.78,48.86,102.76-.11,102.54S259.24,472.28,323.58,443.37Z"/><rect class="cls-2" x="316.73" y="338.26" width="13.91" height="42.16"/><polygon class="cls-8" points="316.94 491.27 316.94 477.36 331.72 477.36 331.72 491.27 345.63 491.27 345.63 506.05 331.72 506.05 331.72 519.96 316.94 519.96 316.94 506.05 303.03 506.05 303.03 491.27 316.94 491.27"/></g></g></g></svg>