<svg xmlns="http://www.w3.org/2000/svg" viewBox="0 0 390 390"><defs><style>.cls-1{fill:#ff9b73;}.cls-2{fill:#fff;}</style></defs><title>circuit_board</title><g id="Layer_2" data-name="Layer 2"><g id="flat"><rect class="cls-1" width="390" height="390" rx="27.93"/><circle class="cls-2" cx="36.02" cy="36.02" r="15.28"/><circle class="cls-2" cx="81.44" cy="36.02" r="15.28"/><circle class="cls-2" cx="126.87" cy="36.02" r="15.28"/><circle class="cls-2" cx="172.29" cy="36.02" r="15.28"/><circle class="cls-2" cx="217.71" cy="36.02" r="15.28"/><circle class="cls-2" cx="263.14" cy="36.02" r="15.28"/><circle class="cls-2" cx="308.56" cy="36.02" r="15.28"/><circle class="cls-2" cx="353.99" cy="36.02" r="15.28"/><circle class="cls-2" cx="36.02" cy="81.44" r="15.28"/><circle class="cls-2" cx="81.44" cy="81.44" r="15.28"/><circle class="cls-2" cx="126.87" cy="81.44" r="15.28"/><circle class="cls-2" cx="172.29" cy="81.44" r="15.28"/><circle class="cls-2" cx="217.71" cy="81.44" r="15.28"/><circle class="cls-2" cx="263.14" cy="81.44" r="15.28"/><circle class="cls-2" cx="308.56" cy="81.44" r="15.28"/><circle class="cls-2" cx="353.99" cy="81.44" r="15.28"/><circle class="cls-2" cx="36.02" cy="126.87" r="15.28"/><circle class="cls-2" cx="81.44" cy="126.87" r="15.28"/><circle class="cls-2" cx="126.87" cy="126.87" r="15.28"/><circle class="cls-2" cx="172.29" cy="126.87" r="15.28"/><circle class="cls-2" cx="217.71" cy="126.87" r="15.28"/><circle class="cls-2" cx="263.14" cy="126.87" r="15.28"/><circle class="cls-2" cx="308.56" cy="126.87" r="15.28"/><circle class="cls-2" cx="353.99" cy="126.87" r="15.28"/><circle class="cls-2" cx="36.02" cy="172.29" r="15.28"/><circle class="cls-2" cx="81.44" cy="172.29" r="15.28"/><circle class="cls-2" cx="126.87" cy="172.29" r="15.28"/><circle class="cls-2" cx="172.29" cy="172.29" r="15.28"/><circle class="cls-2" cx="217.71" cy="172.29" r="15.28"/><circle class="cls-2" cx="263.14" cy="172.29" r="15.28"/><circle class="cls-2" cx="308.56" cy="172.29" r="15.28"/><circle class="cls-2" cx="353.99" cy="172.29" r="15.28"/><circle class="cls-2" cx="36.02" cy="217.71" r="15.28"/><circle class="cls-2" cx="81.44" cy="217.71" r="15.28"/><circle class="cls-2" cx="126.87" cy="217.71" r="15.28"/><circle class="cls-2" cx="172.29" cy="217.71" r="15.28"/><circle class="cls-2" cx="217.71" cy="217.71" r="15.28"/><circle class="cls-2" cx="263.14" cy="217.71" r="15.28"/><circle class="cls-2" cx="308.56" cy="217.71" r="15.28"/><circle class="cls-2" cx="353.99" cy="217.71" r="15.28"/><circle class="cls-2" cx="36.02" cy="263.14" r="15.28"/><circle class="cls-2" cx="81.44" cy="263.14" r="15.28"/><circle class="cls-2" cx="126.87" cy="263.14" r="15.28"/><circle class="cls-2" cx="172.29" cy="263.14" r="15.28"/><circle class="cls-2" cx="217.71" cy="263.14" r="15.28"/><circle class="cls-2" cx="263.14" cy="263.14" r="15.28"/><circle class="cls-2" cx="308.56" cy="263.14" r="15.28"/><circle class="cls-2" cx="353.99" cy="263.14" r="15.28"/><circle class="cls-2" cx="36.02" cy="308.56" r="15.28"/><circle class="cls-2" cx="81.44" cy="308.56" r="15.28"/><circle class="cls-2" cx="126.87" cy="308.56" r="15.28"/><circle class="cls-2" cx="172.29" cy="308.56" r="15.28"/><circle class="cls-2" cx="217.71" cy="308.56" r="15.28"/><circle class="cls-2" cx="263.14" cy="308.56" r="15.28"/><circle class="cls-2" cx="308.56" cy="308.56" r="15.28"/><circle class="cls-2" cx="353.99" cy="308.56" r="15.28"/><circle class="cls-2" cx="36.02" cy="353.99" r="15.28"/><circle class="cls-2" cx="81.44" cy="353.99" r="15.28"/><circle class="cls-2" cx="126.87" cy="353.99" r="15.28"/><circle class="cls-2" cx="172.29" cy="353.99" r="15.28"/><circle class="cls-2" cx="217.71" cy="353.99" r="15.28"/><circle class="cls-2" cx="263.14" cy="353.99" r="15.28"/><circle class="cls-2" cx="308.56" cy="353.99" r="15.28"/><circle class="cls-2" cx="353.99" cy="353.99" r="15.28"/></g></g></svg>