<svg xmlns="http://www.w3.org/2000/svg" viewBox="0 0 491.52 422.41"><defs><style>.cls-1{fill:#a7a9ac;}.cls-2{fill:#cdcfd1;}.cls-3{fill:#414042;}.cls-4{fill:#fc7a86;}.cls-5{fill:#78d6cf;}.cls-6{fill:#fff;}.cls-7{fill:#ffc397;}</style></defs><title>desktop_with_arduino_ide</title><g id="Layer_2" data-name="Layer 2"><g id="flat"><rect class="cls-1" x="166.66" y="267.26" width="158.21" height="152.08" transform="translate(-97.54 589.06) rotate(-90)"/><rect class="cls-2" x="238.07" y="338.69" width="15.36" height="152.08" transform="translate(-168.97 660.48) rotate(-90)"/><rect class="cls-2" x="407.8" y="338.69" width="15.36" height="152.08" transform="translate(0.76 830.2) rotate(-90)"/><rect class="cls-2" x="153.21" y="253.83" width="15.36" height="321.79" transform="translate(-253.83 575.62) rotate(-90)"/><rect class="cls-2" x="72.82" y="-72.82" width="345.88" height="491.51" transform="translate(72.82 418.7) rotate(-90)"/><rect class="cls-3" x="99.8" y="-99.79" width="291.94" height="491.51" transform="translate(99.8 391.73) rotate(-90)"/><rect class="cls-4" x="118.46" y="-81.68" width="254.61" height="455.29" transform="translate(99.8 391.73) rotate(-90)"/><rect class="cls-5" x="130.71" y="-20" width="28.46" height="174.2" transform="translate(77.85 212.04) rotate(-90)"/><rect class="cls-2" x="332.35" y="-20" width="28.46" height="174.2" transform="translate(279.48 413.68) rotate(-90)"/><rect class="cls-6" x="92.9" y="46.28" width="104.1" height="174.2" transform="translate(11.57 278.32) rotate(-90)"/><rect class="cls-2" x="138" y="36.88" width="13.88" height="143.37" transform="translate(36.38 253.51) rotate(-90)"/><rect class="cls-7" x="102.16" y="97.53" width="13.88" height="71.69" transform="translate(-24.28 242.48) rotate(-90)"/><rect class="cls-7" x="102.16" y="122.34" width="13.88" height="71.69" transform="translate(-49.08 267.29) rotate(-90)"/><rect class="cls-6" x="267.71" y="73.1" width="157.74" height="174.2" transform="translate(186.38 506.78) rotate(-90)"/><rect class="cls-3" x="118.12" y="125.15" width="53.64" height="174.2" transform="translate(-67.3 357.19) rotate(-90)"/></g></g></svg>