<svg xmlns="http://www.w3.org/2000/svg" viewBox="0 0 528.21 230.66"><defs><style>.cls-1{fill:#78d6cf;}.cls-2{fill:#fff;}.cls-3{fill:#58595b;}.cls-4{fill:#c1c4c6;}.cls-5{fill:#414042;}.cls-6{fill:#666368;}</style></defs><title>digit_display</title><g id="Layer_2" data-name="Layer 2"><g id="flat"><rect class="cls-1" x="58.26" width="469.95" height="230.66" rx="17.92"/><circle class="cls-2" cx="78.31" cy="19.93" r="13.19"/><circle class="cls-2" cx="508.17" cy="19.93" r="13.19"/><circle class="cls-2" cx="78.31" cy="210.73" r="13.19"/><circle class="cls-2" cx="508.17" cy="210.73" r="13.19"/><rect class="cls-3" x="8.09" y="95.76" width="139.47" height="39.14" transform="translate(193.16 37.5) rotate(90)"/><rect class="cls-4" x="31.53" y="61.95" width="12.91" height="75.97" transform="translate(137.92 61.95) rotate(90)"/><rect class="cls-4" x="31.53" y="30.63" width="12.91" height="75.97" transform="translate(106.6 30.63) rotate(90)"/><rect class="cls-4" x="31.53" y="93.26" width="12.91" height="75.97" transform="translate(169.23 93.26) rotate(90)"/><rect class="cls-4" x="31.53" y="124.58" width="12.91" height="75.97" transform="translate(200.55 124.58) rotate(90)"/><rect class="cls-5" x="127.51" y="45.59" width="356.25" height="139.47"/><rect class="cls-6" x="150.76" y="73.75" width="52.99" height="83.16" rx="12.05"/><rect class="cls-6" x="227.91" y="73.75" width="52.99" height="83.16" rx="12.05"/><rect class="cls-6" x="330.38" y="73.75" width="52.99" height="83.16" rx="12.05"/><rect class="cls-6" x="407.52" y="73.75" width="52.99" height="83.16" rx="12.05"/><circle class="cls-6" cx="305.63" cy="98.23" r="7.21"/><circle class="cls-6" cx="305.63" cy="132.43" r="7.21"/></g></g></svg>