<svg xmlns="http://www.w3.org/2000/svg" viewBox="0 0 5000 833.93"><defs><style>.cls-1{fill:#78d6cf;}.cls-2,.cls-8{fill:#fff;}.cls-3{fill:#414042;}.cls-4{fill:#58595b;}.cls-5{fill:#4c4c4c;}.cls-6{fill:#e3e4e5;}.cls-7{opacity:0.9;}.cls-8{fill-rule:evenodd;}.cls-9{fill:#c9caca;}.cls-10{fill:#e0e0e0;}.cls-11{fill:#c1c4c6;}.cls-12,.cls-13,.cls-14,.cls-15,.cls-16{fill:none;stroke-miterlimit:10;stroke-width:22.9px;}.cls-12{stroke:#e3f982;}.cls-13{stroke:#f98adf;}.cls-14{stroke:#88d9e2;}.cls-15{stroke:#efefef;}.cls-16{stroke:#ffc69f;}.cls-17{fill:#ff92be;}.cls-18{fill:#bdff5f;}.cls-19{fill:#94ffde;}</style></defs><title>Asset 94</title><g id="Layer_2" data-name="Layer 2"><g id="flat"><polygon class="cls-1" points="1910.71 334.8 1910.71 256.63 1515.57 256.63 1515.57 577.38 1910.71 577.38 1910.71 560.76 1937.52 533.4 1937.75 362.38 1910.71 334.8"/><circle class="cls-2" cx="1910.87" cy="369.15" r="13.48"/><circle class="cls-2" cx="1910.87" cy="524.24" r="13.48"/><circle class="cls-2" cx="1611.86" cy="556.62" r="13.48"/><circle class="cls-2" cx="1592.77" cy="285.47" r="13.48"/><rect class="cls-3" x="1679.61" y="547.57" width="125.96" height="29.81"/><rect class="cls-3" x="1790.9" y="256.63" width="119.97" height="28.84"/><rect class="cls-3" x="1820.91" y="547.57" width="89.96" height="29.81"/><rect class="cls-3" x="1619.45" y="256.63" width="156.16" height="28.84"/><rect class="cls-4" x="1515.57" y="502.07" width="70.59" height="54.55"/><rect class="cls-3" x="1494.81" y="502.07" width="20.77" height="54.55"/><rect class="cls-3" x="1708.8" y="437.3" width="202.07" height="63.84"/><rect class="cls-5" x="1602.24" y="348.73" width="37.64" height="37.64"/><rect class="cls-6" x="1470.07" y="311.09" width="102.58" height="75.28"/><rect class="cls-5" x="1547.78" y="421.34" width="24.87" height="47.88"/><rect class="cls-6" x="1592.77" y="485.54" width="50.4" height="50.4" rx="25.2"/><rect class="cls-6" x="1649.4" y="485.54" width="50.4" height="50.4" rx="25.2"/><g class="cls-7"><path class="cls-8" d="M1668.78,352.87c0,48.34,66.47,66.34,99.31,17.12,34,51,97.83,29.64,97.83-17.19s-63.5-69.36-97.83-17.06c-32.54-51.69-99.31-31.21-99.31,17.13Zm17.46,0c0-34.88,49.3-45.89,72.23,0-23.38,44.19-72.23,34.89-72.23,0Zm91.46,0c20.66-46.8,71.3-33.9,71.15.08S1797.76,397.51,1777.7,352.87Z"/><rect class="cls-2" x="1704.77" y="347.97" width="29.26" height="9.65"/><polygon class="cls-8" points="1810.93 357.47 1801.28 357.47 1801.28 347.22 1810.93 347.22 1810.93 337.57 1821.19 337.57 1821.19 347.22 1830.84 347.22 1830.84 357.47 1821.19 357.47 1821.19 367.13 1810.93 367.13 1810.93 357.47"/></g><rect class="cls-6" x="416.68" y="336.5" width="950.74" height="24.45" transform="translate(1784.1 697.45) rotate(-180)"/><rect class="cls-6" x="368.83" y="328.08" width="47.85" height="41.29" transform="translate(785.51 697.45) rotate(-180)"/><rect class="cls-9" x="276.82" y="311.29" width="92.01" height="74.87" transform="translate(645.65 697.45) rotate(-180)"/><rect class="cls-6" x="224.62" y="319.27" width="52.2" height="58.9" transform="translate(501.44 697.45) rotate(-180)"/><rect class="cls-6" x="1367.33" y="322.26" width="88.3" height="52.93"/><rect class="cls-9" x="1455.64" y="322.26" width="14.43" height="52.93"/><rect class="cls-9" x="245.38" y="328.81" width="14.27" height="14.27" transform="translate(-83.42 588.46) rotate(-90)"/><rect class="cls-9" x="245.38" y="354.37" width="14.27" height="14.27" transform="translate(-108.99 614.03) rotate(-90)"/><rect class="cls-1" x="2170.73" y="241.49" width="197.13" height="335.81" rx="12.43"/><circle class="cls-2" cx="2184.63" cy="255.32" r="9.15"/><circle class="cls-2" cx="2353.95" cy="255.32" r="9.15"/><circle class="cls-2" cx="2184.63" cy="563.47" r="9.15"/><circle class="cls-2" cx="2353.95" cy="563.47" r="9.15"/><rect class="cls-10" x="2170.73" y="283.88" width="197.13" height="197.13"/><rect class="cls-3" x="2170.73" y="498.76" width="197.13" height="34.61"/><circle class="cls-2" cx="2188.71" cy="301.86" r="7.74"/><circle class="cls-2" cx="2211.73" cy="301.86" r="7.74"/><circle class="cls-2" cx="2234.76" cy="301.86" r="7.74"/><circle class="cls-2" cx="2257.78" cy="301.86" r="7.74"/><circle class="cls-2" cx="2280.8" cy="301.86" r="7.74"/><circle class="cls-2" cx="2303.83" cy="301.86" r="7.74"/><circle class="cls-2" cx="2326.85" cy="301.86" r="7.74"/><circle class="cls-2" cx="2349.88" cy="301.86" r="7.74"/><circle class="cls-2" cx="2188.71" cy="324.88" r="7.74"/><circle class="cls-2" cx="2211.73" cy="324.88" r="7.74"/><circle class="cls-2" cx="2234.76" cy="324.88" r="7.74"/><circle class="cls-2" cx="2257.78" cy="324.88" r="7.74"/><circle class="cls-2" cx="2280.8" cy="324.88" r="7.74"/><circle class="cls-2" cx="2303.83" cy="324.88" r="7.74"/><circle class="cls-2" cx="2326.85" cy="324.88" r="7.74"/><circle class="cls-2" cx="2349.88" cy="324.88" r="7.74"/><circle class="cls-2" cx="2188.71" cy="347.91" r="7.74"/><circle class="cls-2" cx="2211.73" cy="347.91" r="7.74"/><circle class="cls-2" cx="2234.76" cy="347.91" r="7.74"/><circle class="cls-2" cx="2257.78" cy="347.91" r="7.74"/><circle class="cls-2" cx="2280.8" cy="347.91" r="7.74"/><circle class="cls-2" cx="2303.83" cy="347.91" r="7.74"/><circle class="cls-2" cx="2326.85" cy="347.91" r="7.74"/><circle class="cls-2" cx="2349.88" cy="347.91" r="7.74"/><circle class="cls-2" cx="2188.71" cy="370.93" r="7.74"/><circle class="cls-2" cx="2211.73" cy="370.93" r="7.74"/><circle class="cls-2" cx="2234.76" cy="370.93" r="7.74"/><circle class="cls-2" cx="2257.78" cy="370.93" r="7.74"/><circle class="cls-2" cx="2280.8" cy="370.93" r="7.74"/><circle class="cls-2" cx="2303.83" cy="370.93" r="7.74"/><circle class="cls-2" cx="2326.85" cy="370.93" r="7.74"/><circle class="cls-2" cx="2349.88" cy="370.93" r="7.74"/><circle class="cls-2" cx="2188.71" cy="393.95" r="7.74"/><circle class="cls-2" cx="2211.73" cy="393.95" r="7.74"/><circle class="cls-2" cx="2234.76" cy="393.95" r="7.74"/><circle class="cls-2" cx="2257.78" cy="393.95" r="7.74"/><circle class="cls-2" cx="2280.8" cy="393.95" r="7.74"/><circle class="cls-2" cx="2303.83" cy="393.95" r="7.74"/><circle class="cls-2" cx="2326.85" cy="393.95" r="7.74"/><circle class="cls-2" cx="2349.88" cy="393.95" r="7.74"/><circle class="cls-2" cx="2188.71" cy="416.98" r="7.74"/><circle class="cls-2" cx="2211.73" cy="416.98" r="7.74"/><circle class="cls-2" cx="2234.76" cy="416.98" r="7.74"/><circle class="cls-2" cx="2257.78" cy="416.98" r="7.74"/><circle class="cls-2" cx="2280.8" cy="416.98" r="7.74"/><circle class="cls-2" cx="2303.83" cy="416.98" r="7.74"/><circle class="cls-2" cx="2326.85" cy="416.98" r="7.74"/><circle class="cls-2" cx="2349.88" cy="416.98" r="7.74"/><circle class="cls-2" cx="2188.71" cy="440" r="7.74"/><circle class="cls-2" cx="2211.73" cy="440" r="7.74"/><circle class="cls-2" cx="2234.76" cy="440" r="7.74"/><circle class="cls-2" cx="2257.78" cy="440" r="7.74"/><circle class="cls-2" cx="2280.8" cy="440" r="7.74"/><circle class="cls-2" cx="2303.83" cy="440" r="7.74"/><circle class="cls-2" cx="2326.85" cy="440" r="7.74"/><circle class="cls-2" cx="2349.88" cy="440" r="7.74"/><circle class="cls-2" cx="2188.71" cy="463.03" r="7.74"/><circle class="cls-2" cx="2211.73" cy="463.03" r="7.74"/><circle class="cls-2" cx="2234.76" cy="463.03" r="7.74"/><circle class="cls-2" cx="2257.78" cy="463.03" r="7.74"/><circle class="cls-2" cx="2280.8" cy="463.03" r="7.74"/><circle class="cls-2" cx="2303.83" cy="463.03" r="7.74"/><circle class="cls-2" cx="2326.85" cy="463.03" r="7.74"/><circle class="cls-2" cx="2349.88" cy="463.03" r="7.74"/><rect class="cls-4" x="2209.86" y="550.13" width="118.86" height="27.16"/><rect class="cls-11" x="2243.08" y="565" width="8.96" height="52.71"/><rect class="cls-11" x="2221.36" y="565" width="8.96" height="52.71"/><rect class="cls-11" x="2264.81" y="565" width="8.96" height="52.71"/><rect class="cls-11" x="2286.54" y="565" width="8.96" height="52.71"/><rect class="cls-11" x="2308.27" y="565" width="8.96" height="52.71"/><rect class="cls-4" x="2209.86" y="256.72" width="118.86" height="27.16" transform="translate(4538.58 540.59) rotate(180)"/><rect class="cls-11" x="2286.54" y="216.3" width="8.96" height="52.71" transform="translate(4582.04 485.31) rotate(180)"/><rect class="cls-11" x="2308.27" y="216.3" width="8.96" height="52.71" transform="translate(4625.49 485.31) rotate(180)"/><rect class="cls-11" x="2264.81" y="216.3" width="8.96" height="52.71" transform="translate(4538.58 485.31) rotate(180)"/><rect class="cls-11" x="2243.08" y="216.3" width="8.96" height="52.71" transform="translate(4495.13 485.31) rotate(180)"/><rect class="cls-11" x="2221.36" y="216.3" width="8.96" height="52.71" transform="translate(4451.67 485.31) rotate(180)"/><rect class="cls-1" x="2554.64" y="241.49" width="197.13" height="335.81" rx="12.43"/><circle class="cls-2" cx="2568.55" cy="255.32" r="9.15"/><circle class="cls-2" cx="2737.87" cy="255.32" r="9.15"/><circle class="cls-2" cx="2568.55" cy="563.47" r="9.15"/><circle class="cls-2" cx="2737.87" cy="563.47" r="9.15"/><rect class="cls-10" x="2554.64" y="283.88" width="197.13" height="197.13"/><rect class="cls-3" x="2554.64" y="498.76" width="197.13" height="34.61"/><circle class="cls-2" cx="2572.62" cy="301.86" r="7.74"/><circle class="cls-2" cx="2595.65" cy="301.86" r="7.74"/><circle class="cls-2" cx="2618.67" cy="301.86" r="7.74"/><circle class="cls-2" cx="2641.69" cy="301.86" r="7.74"/><circle class="cls-2" cx="2664.72" cy="301.86" r="7.74"/><circle class="cls-2" cx="2687.74" cy="301.86" r="7.74"/><circle class="cls-2" cx="2710.77" cy="301.86" r="7.74"/><circle class="cls-2" cx="2733.79" cy="301.86" r="7.74"/><circle class="cls-2" cx="2572.62" cy="324.88" r="7.74"/><circle class="cls-2" cx="2595.65" cy="324.88" r="7.74"/><circle class="cls-2" cx="2618.67" cy="324.88" r="7.74"/><circle class="cls-2" cx="2641.69" cy="324.88" r="7.74"/><circle class="cls-2" cx="2664.72" cy="324.88" r="7.74"/><circle class="cls-2" cx="2687.74" cy="324.88" r="7.74"/><circle class="cls-2" cx="2710.77" cy="324.88" r="7.74"/><circle class="cls-2" cx="2733.79" cy="324.88" r="7.74"/><circle class="cls-2" cx="2572.62" cy="347.91" r="7.74"/><circle class="cls-2" cx="2595.65" cy="347.91" r="7.74"/><circle class="cls-2" cx="2618.67" cy="347.91" r="7.74"/><circle class="cls-2" cx="2641.69" cy="347.91" r="7.74"/><circle class="cls-2" cx="2664.72" cy="347.91" r="7.74"/><circle class="cls-2" cx="2687.74" cy="347.91" r="7.74"/><circle class="cls-2" cx="2710.77" cy="347.91" r="7.74"/><circle class="cls-2" cx="2733.79" cy="347.91" r="7.74"/><circle class="cls-2" cx="2572.62" cy="370.93" r="7.74"/><circle class="cls-2" cx="2595.65" cy="370.93" r="7.74"/><circle class="cls-2" cx="2618.67" cy="370.93" r="7.74"/><circle class="cls-2" cx="2641.69" cy="370.93" r="7.74"/><circle class="cls-2" cx="2664.72" cy="370.93" r="7.74"/><circle class="cls-2" cx="2687.74" cy="370.93" r="7.74"/><circle class="cls-2" cx="2710.77" cy="370.93" r="7.74"/><circle class="cls-2" cx="2733.79" cy="370.93" r="7.74"/><circle class="cls-2" cx="2572.62" cy="393.95" r="7.74"/><circle class="cls-2" cx="2595.65" cy="393.95" r="7.74"/><circle class="cls-2" cx="2618.67" cy="393.95" r="7.74"/><circle class="cls-2" cx="2641.69" cy="393.95" r="7.74"/><circle class="cls-2" cx="2664.72" cy="393.95" r="7.74"/><circle class="cls-2" cx="2687.74" cy="393.95" r="7.74"/><circle class="cls-2" cx="2710.77" cy="393.95" r="7.74"/><circle class="cls-2" cx="2733.79" cy="393.95" r="7.74"/><circle class="cls-2" cx="2572.62" cy="416.98" r="7.74"/><circle class="cls-2" cx="2595.65" cy="416.98" r="7.74"/><circle class="cls-2" cx="2618.67" cy="416.98" r="7.74"/><circle class="cls-2" cx="2641.69" cy="416.98" r="7.74"/><circle class="cls-2" cx="2664.72" cy="416.98" r="7.74"/><circle class="cls-2" cx="2687.74" cy="416.98" r="7.74"/><circle class="cls-2" cx="2710.77" cy="416.98" r="7.74"/><circle class="cls-2" cx="2733.79" cy="416.98" r="7.74"/><circle class="cls-2" cx="2572.62" cy="440" r="7.74"/><circle class="cls-2" cx="2595.65" cy="440" r="7.74"/><circle class="cls-2" cx="2618.67" cy="440" r="7.74"/><circle class="cls-2" cx="2641.69" cy="440" r="7.74"/><circle class="cls-2" cx="2664.72" cy="440" r="7.74"/><circle class="cls-2" cx="2687.74" cy="440" r="7.74"/><circle class="cls-2" cx="2710.77" cy="440" r="7.74"/><circle class="cls-2" cx="2733.79" cy="440" r="7.74"/><circle class="cls-2" cx="2572.62" cy="463.03" r="7.74"/><circle class="cls-2" cx="2595.65" cy="463.03" r="7.74"/><circle class="cls-2" cx="2618.67" cy="463.03" r="7.74"/><circle class="cls-2" cx="2641.69" cy="463.03" r="7.74"/><circle class="cls-2" cx="2664.72" cy="463.03" r="7.74"/><circle class="cls-2" cx="2687.74" cy="463.03" r="7.74"/><circle class="cls-2" cx="2710.77" cy="463.03" r="7.74"/><circle class="cls-2" cx="2733.79" cy="463.03" r="7.74"/><rect class="cls-4" x="2593.78" y="550.13" width="118.86" height="27.16"/><rect class="cls-11" x="2627" y="565" width="8.96" height="52.71"/><rect class="cls-11" x="2605.27" y="565" width="8.96" height="52.71"/><rect class="cls-11" x="2648.73" y="565" width="8.96" height="52.71"/><rect class="cls-11" x="2670.45" y="565" width="8.96" height="52.71"/><rect class="cls-11" x="2692.18" y="565" width="8.96" height="52.71"/><rect class="cls-4" x="2593.78" y="256.72" width="118.86" height="27.16" transform="translate(5306.41 540.59) rotate(180)"/><rect class="cls-11" x="2670.45" y="216.3" width="8.96" height="52.71" transform="translate(5349.87 485.31) rotate(180)"/><rect class="cls-11" x="2692.18" y="216.3" width="8.96" height="52.71" transform="translate(5393.32 485.31) rotate(180)"/><rect class="cls-11" x="2648.73" y="216.3" width="8.96" height="52.71" transform="translate(5306.41 485.31) rotate(180)"/><rect class="cls-11" x="2627" y="216.3" width="8.96" height="52.71" transform="translate(5262.96 485.31) rotate(180)"/><rect class="cls-11" x="2605.27" y="216.3" width="8.96" height="52.71" transform="translate(5219.5 485.31) rotate(180)"/><rect class="cls-1" x="2938.41" y="241.49" width="197.13" height="335.81" rx="12.43"/><circle class="cls-2" cx="2952.32" cy="255.32" r="9.15"/><circle class="cls-2" cx="3121.64" cy="255.32" r="9.15"/><circle class="cls-2" cx="2952.32" cy="563.47" r="9.15"/><circle class="cls-2" cx="3121.64" cy="563.47" r="9.15"/><rect class="cls-10" x="2938.41" y="283.88" width="197.13" height="197.13"/><rect class="cls-3" x="2938.41" y="498.76" width="197.13" height="34.61"/><circle class="cls-2" cx="2956.39" cy="301.86" r="7.74"/><circle class="cls-2" cx="2979.42" cy="301.86" r="7.74"/><circle class="cls-2" cx="3002.44" cy="301.86" r="7.74"/><circle class="cls-2" cx="3025.47" cy="301.86" r="7.74"/><circle class="cls-2" cx="3048.49" cy="301.86" r="7.74"/><circle class="cls-2" cx="3071.52" cy="301.86" r="7.74"/><circle class="cls-2" cx="3094.54" cy="301.86" r="7.74"/><circle class="cls-2" cx="3117.57" cy="301.86" r="7.74"/><circle class="cls-2" cx="2956.39" cy="324.88" r="7.74"/><circle class="cls-2" cx="2979.42" cy="324.88" r="7.74"/><circle class="cls-2" cx="3002.44" cy="324.88" r="7.74"/><circle class="cls-2" cx="3025.47" cy="324.88" r="7.74"/><circle class="cls-2" cx="3048.49" cy="324.88" r="7.74"/><circle class="cls-2" cx="3071.52" cy="324.88" r="7.74"/><circle class="cls-2" cx="3094.54" cy="324.88" r="7.74"/><circle class="cls-2" cx="3117.57" cy="324.88" r="7.74"/><circle class="cls-2" cx="2956.39" cy="347.91" r="7.74"/><circle class="cls-2" cx="2979.42" cy="347.91" r="7.74"/><circle class="cls-2" cx="3002.44" cy="347.91" r="7.74"/><circle class="cls-2" cx="3025.47" cy="347.91" r="7.74"/><circle class="cls-2" cx="3048.49" cy="347.91" r="7.74"/><circle class="cls-2" cx="3071.52" cy="347.91" r="7.74"/><circle class="cls-2" cx="3094.54" cy="347.91" r="7.74"/><circle class="cls-2" cx="3117.57" cy="347.91" r="7.74"/><circle class="cls-2" cx="2956.39" cy="370.93" r="7.74"/><circle class="cls-2" cx="2979.42" cy="370.93" r="7.74"/><circle class="cls-2" cx="3002.44" cy="370.93" r="7.74"/><circle class="cls-2" cx="3025.47" cy="370.93" r="7.74"/><circle class="cls-2" cx="3048.49" cy="370.93" r="7.74"/><circle class="cls-2" cx="3071.52" cy="370.93" r="7.74"/><circle class="cls-2" cx="3094.54" cy="370.93" r="7.74"/><circle class="cls-2" cx="3117.57" cy="370.93" r="7.74"/><circle class="cls-2" cx="2956.39" cy="393.95" r="7.74"/><circle class="cls-2" cx="2979.42" cy="393.95" r="7.74"/><circle class="cls-2" cx="3002.44" cy="393.95" r="7.74"/><circle class="cls-2" cx="3025.47" cy="393.95" r="7.74"/><circle class="cls-2" cx="3048.49" cy="393.95" r="7.74"/><circle class="cls-2" cx="3071.52" cy="393.95" r="7.74"/><circle class="cls-2" cx="3094.54" cy="393.95" r="7.74"/><circle class="cls-2" cx="3117.57" cy="393.95" r="7.74"/><circle class="cls-2" cx="2956.39" cy="416.98" r="7.74"/><circle class="cls-2" cx="2979.42" cy="416.98" r="7.74"/><circle class="cls-2" cx="3002.44" cy="416.98" r="7.74"/><circle class="cls-2" cx="3025.47" cy="416.98" r="7.74"/><circle class="cls-2" cx="3048.49" cy="416.98" r="7.74"/><circle class="cls-2" cx="3071.52" cy="416.98" r="7.74"/><circle class="cls-2" cx="3094.54" cy="416.98" r="7.74"/><circle class="cls-2" cx="3117.57" cy="416.98" r="7.74"/><circle class="cls-2" cx="2956.39" cy="440" r="7.74"/><circle class="cls-2" cx="2979.42" cy="440" r="7.74"/><circle class="cls-2" cx="3002.44" cy="440" r="7.74"/><circle class="cls-2" cx="3025.47" cy="440" r="7.74"/><circle class="cls-2" cx="3048.49" cy="440" r="7.74"/><circle class="cls-2" cx="3071.52" cy="440" r="7.74"/><circle class="cls-2" cx="3094.54" cy="440" r="7.74"/><circle class="cls-2" cx="3117.57" cy="440" r="7.74"/><circle class="cls-2" cx="2956.39" cy="463.03" r="7.74"/><circle class="cls-2" cx="2979.42" cy="463.03" r="7.74"/><circle class="cls-2" cx="3002.44" cy="463.03" r="7.74"/><circle class="cls-2" cx="3025.47" cy="463.03" r="7.74"/><circle class="cls-2" cx="3048.49" cy="463.03" r="7.74"/><circle class="cls-2" cx="3071.52" cy="463.03" r="7.74"/><circle class="cls-2" cx="3094.54" cy="463.03" r="7.74"/><circle class="cls-2" cx="3117.57" cy="463.03" r="7.74"/><rect class="cls-4" x="2977.55" y="550.13" width="118.86" height="27.16"/><rect class="cls-11" x="3010.77" y="565" width="8.96" height="52.71"/><rect class="cls-11" x="2989.04" y="565" width="8.96" height="52.71"/><rect class="cls-11" x="3032.5" y="565" width="8.96" height="52.71"/><rect class="cls-11" x="3054.23" y="565" width="8.96" height="52.71"/><rect class="cls-11" x="3075.96" y="565" width="8.96" height="52.71"/><rect class="cls-4" x="2977.55" y="256.72" width="118.86" height="27.16" transform="translate(6073.96 540.59) rotate(180)"/><rect class="cls-11" x="3054.23" y="216.3" width="8.96" height="52.71" transform="translate(6117.42 485.31) rotate(180)"/><rect class="cls-11" x="3075.96" y="216.3" width="8.96" height="52.71" transform="translate(6160.87 485.31) rotate(180)"/><rect class="cls-11" x="3032.5" y="216.3" width="8.96" height="52.71" transform="translate(6073.96 485.31) rotate(180)"/><rect class="cls-11" x="3010.77" y="216.3" width="8.96" height="52.71" transform="translate(6030.51 485.31) rotate(180)"/><rect class="cls-11" x="2989.04" y="216.3" width="8.96" height="52.71" transform="translate(5987.05 485.31) rotate(180)"/><rect class="cls-1" x="3322.19" y="241.49" width="197.13" height="335.81" rx="12.43"/><circle class="cls-2" cx="3336.1" cy="255.32" r="9.15"/><circle class="cls-2" cx="3505.41" cy="255.32" r="9.15"/><circle class="cls-2" cx="3336.1" cy="563.47" r="9.15"/><circle class="cls-2" cx="3505.41" cy="563.47" r="9.15"/><rect class="cls-10" x="3322.19" y="283.88" width="197.13" height="197.13"/><rect class="cls-3" x="3322.19" y="498.76" width="197.13" height="34.61"/><circle class="cls-2" cx="3340.17" cy="301.86" r="7.74"/><circle class="cls-2" cx="3363.19" cy="301.86" r="7.74"/><circle class="cls-2" cx="3386.22" cy="301.86" r="7.74"/><circle class="cls-2" cx="3409.24" cy="301.86" r="7.74"/><circle class="cls-2" cx="3432.27" cy="301.86" r="7.74"/><circle class="cls-2" cx="3455.29" cy="301.86" r="7.74"/><circle class="cls-2" cx="3478.32" cy="301.86" r="7.74"/><circle class="cls-2" cx="3501.34" cy="301.86" r="7.74"/><circle class="cls-2" cx="3340.17" cy="324.88" r="7.74"/><circle class="cls-2" cx="3363.19" cy="324.88" r="7.74"/><circle class="cls-2" cx="3386.22" cy="324.88" r="7.74"/><circle class="cls-2" cx="3409.24" cy="324.88" r="7.74"/><circle class="cls-2" cx="3432.27" cy="324.88" r="7.74"/><circle class="cls-2" cx="3455.29" cy="324.88" r="7.74"/><circle class="cls-2" cx="3478.32" cy="324.88" r="7.74"/><circle class="cls-2" cx="3501.34" cy="324.88" r="7.74"/><circle class="cls-2" cx="3340.17" cy="347.91" r="7.74"/><circle class="cls-2" cx="3363.19" cy="347.91" r="7.74"/><circle class="cls-2" cx="3386.22" cy="347.91" r="7.74"/><circle class="cls-2" cx="3409.24" cy="347.91" r="7.74"/><circle class="cls-2" cx="3432.27" cy="347.91" r="7.74"/><circle class="cls-2" cx="3455.29" cy="347.91" r="7.74"/><circle class="cls-2" cx="3478.32" cy="347.91" r="7.74"/><circle class="cls-2" cx="3501.34" cy="347.91" r="7.74"/><circle class="cls-2" cx="3340.17" cy="370.93" r="7.74"/><circle class="cls-2" cx="3363.19" cy="370.93" r="7.74"/><circle class="cls-2" cx="3386.22" cy="370.93" r="7.74"/><circle class="cls-2" cx="3409.24" cy="370.93" r="7.74"/><circle class="cls-2" cx="3432.27" cy="370.93" r="7.74"/><circle class="cls-2" cx="3455.29" cy="370.93" r="7.74"/><circle class="cls-2" cx="3478.32" cy="370.93" r="7.74"/><circle class="cls-2" cx="3501.34" cy="370.93" r="7.74"/><circle class="cls-2" cx="3340.17" cy="393.95" r="7.74"/><circle class="cls-2" cx="3363.19" cy="393.95" r="7.74"/><circle class="cls-2" cx="3386.22" cy="393.95" r="7.74"/><circle class="cls-2" cx="3409.24" cy="393.95" r="7.74"/><circle class="cls-2" cx="3432.27" cy="393.95" r="7.74"/><circle class="cls-2" cx="3455.29" cy="393.95" r="7.74"/><circle class="cls-2" cx="3478.32" cy="393.95" r="7.74"/><circle class="cls-2" cx="3501.34" cy="393.95" r="7.74"/><circle class="cls-2" cx="3340.17" cy="416.98" r="7.74"/><circle class="cls-2" cx="3363.19" cy="416.98" r="7.74"/><circle class="cls-2" cx="3386.22" cy="416.98" r="7.74"/><circle class="cls-2" cx="3409.24" cy="416.98" r="7.74"/><circle class="cls-2" cx="3432.27" cy="416.98" r="7.74"/><circle class="cls-2" cx="3455.29" cy="416.98" r="7.74"/><circle class="cls-2" cx="3478.32" cy="416.98" r="7.74"/><circle class="cls-2" cx="3501.34" cy="416.98" r="7.74"/><circle class="cls-2" cx="3340.17" cy="440" r="7.74"/><circle class="cls-2" cx="3363.19" cy="440" r="7.74"/><circle class="cls-2" cx="3386.22" cy="440" r="7.74"/><circle class="cls-2" cx="3409.24" cy="440" r="7.74"/><circle class="cls-2" cx="3432.27" cy="440" r="7.74"/><circle class="cls-2" cx="3455.29" cy="440" r="7.74"/><circle class="cls-2" cx="3478.32" cy="440" r="7.74"/><circle class="cls-2" cx="3501.34" cy="440" r="7.74"/><circle class="cls-2" cx="3340.17" cy="463.03" r="7.74"/><circle class="cls-2" cx="3363.19" cy="463.03" r="7.74"/><circle class="cls-2" cx="3386.22" cy="463.03" r="7.74"/><circle class="cls-2" cx="3409.24" cy="463.03" r="7.74"/><circle class="cls-2" cx="3432.27" cy="463.03" r="7.74"/><circle class="cls-2" cx="3455.29" cy="463.03" r="7.74"/><circle class="cls-2" cx="3478.32" cy="463.03" r="7.74"/><circle class="cls-2" cx="3501.34" cy="463.03" r="7.74"/><rect class="cls-4" x="3361.32" y="550.13" width="118.86" height="27.16"/><rect class="cls-11" x="3394.55" y="565" width="8.96" height="52.71"/><rect class="cls-11" x="3372.82" y="565" width="8.96" height="52.71"/><rect class="cls-11" x="3416.27" y="565" width="8.96" height="52.71"/><rect class="cls-11" x="3438" y="565" width="8.96" height="52.71"/><rect class="cls-11" x="3459.73" y="565" width="8.96" height="52.71"/><rect class="cls-4" x="3361.32" y="256.72" width="118.86" height="27.16" transform="translate(6841.51 540.59) rotate(180)"/><rect class="cls-11" x="3438" y="216.3" width="8.96" height="52.71" transform="translate(6884.96 485.31) rotate(180)"/><rect class="cls-11" x="3459.73" y="216.3" width="8.96" height="52.71" transform="translate(6928.42 485.31) rotate(180)"/><rect class="cls-11" x="3416.27" y="216.3" width="8.96" height="52.71" transform="translate(6841.51 485.31) rotate(180)"/><rect class="cls-11" x="3394.55" y="216.3" width="8.96" height="52.71" transform="translate(6798.05 485.31) rotate(180)"/><rect class="cls-11" x="3372.82" y="216.3" width="8.96" height="52.71" transform="translate(6754.6 485.31) rotate(180)"/><path class="cls-12" d="M2696.66,617.64V683a139.49,139.49,0,0,1-139.49,139.49h0A139.49,139.49,0,0,1,2417.68,683V151.12a52.21,52.21,0,0,0-52-52.21h0a52.21,52.21,0,0,0-52.4,52.21V216.3"/><path class="cls-13" d="M2631.48,617.64v65.6a74.49,74.49,0,0,1-74.5,74.49h0a74.5,74.5,0,0,1-74.5-74.49V150.82A117.66,117.66,0,0,0,2364.82,33.15h0a117.67,117.67,0,0,0-117.67,117.67V216.3"/><path class="cls-14" d="M2674.93,617.64v65.48a117.66,117.66,0,0,1-117.66,117.66h0a117.66,117.66,0,0,1-117.66-117.66V150.7a74.5,74.5,0,0,0-74.5-74.5h0a74.49,74.49,0,0,0-74.5,74.5v65.6"/><path class="cls-15" d="M2653.21,617.64V683a96,96,0,0,1-96,96h0a96,96,0,0,1-96-96V150.94a96,96,0,0,0-96-96h0a96,96,0,0,0-96,96V216.3"/><path class="cls-16" d="M2609.75,617.64v65.17A52.22,52.22,0,0,1,2557.36,735h0a52.23,52.23,0,0,1-52-52.22V150.94A139.49,139.49,0,0,0,2365.83,11.45h0a139.49,139.49,0,0,0-139.49,139.49V216.3"/><path class="cls-13" d="M2248,617.64v65.6a74.49,74.49,0,0,1-74.5,74.49H1809.12a75.09,75.09,0,0,1-75.1-75.09V562.47"/><path class="cls-16" d="M2226.23,617.64v65.17A52.21,52.21,0,0,1,2173.84,735l-366-.17a52.11,52.11,0,0,1-52.09-52.11V562.47"/><path class="cls-12" d="M2313.14,617.64V683a139.49,139.49,0,0,1-139.49,139.49h0A139.5,139.5,0,0,1,2034.16,683V151.17A52.13,52.13,0,0,0,1982.09,99l-173.77-.24a52.14,52.14,0,0,0-52.2,52.14V271.05"/><path class="cls-14" d="M2291.42,617.64v65.48a117.66,117.66,0,0,1-117.67,117.66h0a117.66,117.66,0,0,1-117.66-117.66V151a74.77,74.77,0,0,0-74.77-74.77H1808.24A74.76,74.76,0,0,0,1733.47,151V271.05"/><path class="cls-15" d="M2269.69,617.64V683a96,96,0,0,1-96,96h0a96,96,0,0,1-96-96V151A96.12,96.12,0,0,0,1981.5,54.9H1808A96.12,96.12,0,0,0,1711.93,151v120"/><path class="cls-12" d="M3080.44,617.64V683A139.5,139.5,0,0,1,2941,822.49h0A139.49,139.49,0,0,1,2801.46,683V151.12a52.22,52.22,0,0,0-52-52.21h0A52.21,52.21,0,0,0,2697,151.12V216.3"/><path class="cls-13" d="M3015.25,617.64v65.6a74.49,74.49,0,0,1-74.5,74.49h0a74.5,74.5,0,0,1-74.5-74.49V150.82A117.66,117.66,0,0,0,2748.59,33.15h0a117.66,117.66,0,0,0-117.66,117.67V216.3"/><path class="cls-14" d="M3058.71,617.64v65.48A117.66,117.66,0,0,1,2941,800.78h0a117.66,117.66,0,0,1-117.66-117.66V150.7a74.49,74.49,0,0,0-74.5-74.5h0a74.5,74.5,0,0,0-74.5,74.5v65.6"/><path class="cls-15" d="M3037,617.64V683a96,96,0,0,1-96,96h0a96,96,0,0,1-96-96V150.94a96,96,0,0,0-96-96h0a96,96,0,0,0-96,96V216.3"/><path class="cls-16" d="M2993.53,617.64v65.17a52.22,52.22,0,0,1-52.4,52.22h0a52.22,52.22,0,0,1-52-52.22V150.94A139.49,139.49,0,0,0,2749.61,11.45h0a139.49,139.49,0,0,0-139.49,139.49V216.3"/><path class="cls-12" d="M3464.21,617.64V683a139.49,139.49,0,0,1-139.49,139.49h0A139.49,139.49,0,0,1,3185.23,683V151.12a52.22,52.22,0,0,0-52-52.21h0a52.21,52.21,0,0,0-52.4,52.21V216.3"/><path class="cls-13" d="M3399,617.64v65.6a74.5,74.5,0,0,1-74.5,74.49h0a74.49,74.49,0,0,1-74.5-74.49V150.82A117.67,117.67,0,0,0,3132.36,33.15h0A117.66,117.66,0,0,0,3014.7,150.82V216.3"/><path class="cls-14" d="M3442.48,617.64v65.48a117.66,117.66,0,0,1-117.66,117.66h0a117.66,117.66,0,0,1-117.67-117.66V150.7a74.49,74.49,0,0,0-74.5-74.5h0a74.49,74.49,0,0,0-74.49,74.5v65.6"/><path class="cls-15" d="M3420.75,617.64V683a96,96,0,0,1-96,96h0a96,96,0,0,1-96-96V150.94a96,96,0,0,0-96-96h0a96,96,0,0,0-96,96V216.3"/><path class="cls-16" d="M3377.3,617.64v65.17A52.22,52.22,0,0,1,3324.9,735h0a52.23,52.23,0,0,1-52-52.22V150.94A139.49,139.49,0,0,0,3133.38,11.45h0a139.49,139.49,0,0,0-139.49,139.49V216.3"/><path class="cls-16" d="M3377.37,216.3V150.94A139.49,139.49,0,0,1,3516.86,11.45H5000"/><path class="cls-14" d="M3442.56,216.3V150.7a74.49,74.49,0,0,1,74.5-74.5H5000"/><path class="cls-13" d="M3399.1,216.3V150.82A117.67,117.67,0,0,1,3516.77,33.15H5000"/><path class="cls-15" d="M3420.83,216.3V150.94a96,96,0,0,1,96-96H5000"/><path class="cls-12" d="M3464.28,216.3V151.12a52.21,52.21,0,0,1,52.4-52.21H5000"/><rect class="cls-11" x="2209.86" y="577.3" width="118.86" height="40.41"/><rect class="cls-11" x="2593.78" y="577.3" width="118.86" height="40.41"/><rect class="cls-11" x="2977.69" y="577.3" width="118.86" height="40.41"/><rect class="cls-11" x="2209.86" y="216.3" width="118.86" height="40.41"/><rect class="cls-11" x="2593.78" y="216.3" width="118.86" height="40.41"/><rect class="cls-11" x="2977.69" y="216.3" width="118.86" height="40.41"/><rect class="cls-11" x="3361.61" y="216.3" width="118.86" height="40.41"/><rect class="cls-11" x="3361.61" y="577.3" width="118.86" height="40.41"/><rect class="cls-4" x="1692.71" y="256.63" width="82.9" height="28.84"/><rect class="cls-4" x="1713.37" y="547.57" width="62.64" height="29.81"/><circle class="cls-17" cx="2595.57" cy="324.88" r="8.52"/><circle class="cls-17" cx="2618.6" cy="324.88" r="8.52"/><circle class="cls-17" cx="2687.67" cy="324.88" r="8.52"/><circle class="cls-17" cx="2710.7" cy="324.88" r="8.52"/><circle class="cls-17" cx="2572.55" cy="347.91" r="8.52"/><circle class="cls-17" cx="2595.57" cy="347.91" r="8.52"/><circle class="cls-17" cx="2618.6" cy="347.91" r="8.52"/><circle class="cls-17" cx="2641.62" cy="347.91" r="8.52"/><circle class="cls-17" cx="2664.65" cy="347.91" r="8.52"/><circle class="cls-17" cx="2687.67" cy="347.91" r="8.52"/><circle class="cls-17" cx="2710.7" cy="347.91" r="8.52"/><circle class="cls-17" cx="2733.72" cy="347.91" r="8.52"/><circle class="cls-17" cx="2572.55" cy="370.93" r="8.52"/><circle class="cls-17" cx="2595.57" cy="370.93" r="8.52"/><circle class="cls-17" cx="2618.6" cy="370.93" r="8.52"/><circle class="cls-17" cx="2641.62" cy="370.93" r="8.52"/><circle class="cls-17" cx="2664.65" cy="370.93" r="8.52"/><circle class="cls-17" cx="2687.67" cy="370.93" r="8.52"/><circle class="cls-17" cx="2710.7" cy="370.93" r="8.52"/><circle class="cls-17" cx="2733.72" cy="370.93" r="8.52"/><circle class="cls-17" cx="2572.55" cy="393.95" r="8.52"/><circle class="cls-17" cx="2595.57" cy="393.95" r="8.52"/><circle class="cls-17" cx="2618.6" cy="393.95" r="8.52"/><circle class="cls-17" cx="2641.62" cy="393.95" r="8.52"/><circle class="cls-17" cx="2664.65" cy="393.95" r="8.52"/><circle class="cls-17" cx="2687.67" cy="393.95" r="8.52"/><circle class="cls-17" cx="2710.7" cy="393.95" r="8.52"/><circle class="cls-17" cx="2733.72" cy="393.95" r="8.52"/><circle class="cls-17" cx="2595.57" cy="416.98" r="8.52"/><circle class="cls-17" cx="2618.6" cy="416.98" r="8.52"/><circle class="cls-17" cx="2641.62" cy="416.98" r="8.52"/><circle class="cls-17" cx="2664.65" cy="416.98" r="8.52"/><circle class="cls-17" cx="2687.67" cy="416.98" r="8.52"/><circle class="cls-17" cx="2710.7" cy="416.98" r="8.52"/><circle class="cls-17" cx="2618.6" cy="440" r="8.52"/><circle class="cls-17" cx="2641.62" cy="440" r="8.52"/><circle class="cls-17" cx="2664.65" cy="440" r="8.52"/><circle class="cls-17" cx="2687.67" cy="440" r="8.52"/><circle class="cls-17" cx="2641.62" cy="463.03" r="8.52"/><circle class="cls-17" cx="2664.65" cy="463.03" r="8.52"/><circle class="cls-18" cx="2257.78" cy="324.88" r="7.74"/><circle class="cls-18" cx="2280.8" cy="324.88" r="7.74"/><circle class="cls-18" cx="2257.78" cy="347.91" r="7.74"/><circle class="cls-18" cx="2280.8" cy="347.91" r="7.74"/><circle class="cls-18" cx="2257.78" cy="370.93" r="7.74"/><circle class="cls-18" cx="2280.8" cy="370.93" r="7.74"/><circle class="cls-18" cx="2257.78" cy="393.95" r="7.74"/><circle class="cls-18" cx="2280.8" cy="393.95" r="7.74"/><circle class="cls-18" cx="2257.78" cy="416.98" r="7.74"/><circle class="cls-18" cx="2280.8" cy="416.98" r="7.74"/><circle class="cls-18" cx="2257.78" cy="440" r="7.74"/><circle class="cls-18" cx="2280.8" cy="440" r="7.74"/><circle class="cls-19" cx="3002.44" cy="324.88" r="7.74"/><circle class="cls-19" cx="3025.47" cy="324.88" r="7.74"/><circle class="cls-19" cx="3048.49" cy="324.88" r="7.74"/><circle class="cls-19" cx="2979.42" cy="347.91" r="7.74"/><circle class="cls-19" cx="3071.52" cy="347.91" r="7.74"/><circle class="cls-19" cx="2956.39" cy="370.93" r="7.74"/><circle class="cls-19" cx="3094.54" cy="370.93" r="7.74"/><circle class="cls-19" cx="2956.39" cy="393.95" r="7.74"/><circle class="cls-19" cx="3002.44" cy="393.95" r="7.74"/><circle class="cls-19" cx="3025.47" cy="393.95" r="7.74"/><circle class="cls-19" cx="3048.49" cy="393.95" r="7.74"/><circle class="cls-19" cx="3117.57" cy="393.95" r="7.74"/><circle class="cls-19" cx="2956.39" cy="416.98" r="7.74"/><circle class="cls-19" cx="3094.54" cy="416.98" r="7.74"/><circle class="cls-19" cx="2979.42" cy="440" r="7.74"/><circle class="cls-19" cx="3071.52" cy="440" r="7.74"/><circle class="cls-19" cx="3002.44" cy="463.03" r="7.74"/><circle class="cls-19" cx="3025.47" cy="463.03" r="7.74"/><circle class="cls-19" cx="3048.49" cy="463.03" r="7.74"/><circle class="cls-19" cx="3455.29" cy="463.03" r="7.74"/><circle class="cls-19" cx="3432.27" cy="463.03" r="7.74"/><circle class="cls-19" cx="3409.24" cy="463.03" r="7.74"/><circle class="cls-19" cx="3478.32" cy="440" r="7.74"/><circle class="cls-19" cx="3386.22" cy="440" r="7.74"/><circle class="cls-19" cx="3501.34" cy="416.98" r="7.74"/><circle class="cls-19" cx="3363.19" cy="416.98" r="7.74"/><circle class="cls-19" cx="3501.34" cy="393.95" r="7.74"/><circle class="cls-19" cx="3455.29" cy="393.95" r="7.74"/><circle class="cls-19" cx="3432.27" cy="393.95" r="7.74"/><circle class="cls-19" cx="3432.27" cy="370.93" r="7.74"/><circle class="cls-19" cx="3432.27" cy="416.98" r="7.74"/><circle class="cls-19" cx="3409.24" cy="393.95" r="7.74"/><circle class="cls-19" cx="3340.17" cy="393.95" r="7.74"/><circle class="cls-19" cx="3501.34" cy="370.93" r="7.74"/><circle class="cls-19" cx="3363.19" cy="370.93" r="7.74"/><circle class="cls-19" cx="3478.32" cy="347.91" r="7.74"/><circle class="cls-19" cx="3386.22" cy="347.91" r="7.74"/><circle class="cls-19" cx="3455.29" cy="324.88" r="7.74"/><circle class="cls-19" cx="3432.27" cy="324.88" r="7.74"/><circle class="cls-19" cx="3409.24" cy="324.88" r="7.74"/><path class="cls-6" d="M0,11.45H259.65a0,0,0,0,1,0,0v778.5a32.54,32.54,0,0,1-32.54,32.54H0a0,0,0,0,1,0,0v-811A0,0,0,0,1,0,11.45Z"/><rect class="cls-9" y="11.45" width="259.65" height="32.38"/></g></g></svg>