<svg xmlns="http://www.w3.org/2000/svg" viewBox="0 0 578.5 314.65"><defs><style>.cls-1{fill:#cdcfd1;}.cls-2{fill:#414042;}.cls-3{fill:#43c7dd;}.cls-4{fill:#78d6cf;}.cls-5{fill:#fff;}.cls-6{fill:#ffc397;}</style></defs><title>laptop_with_arduino_ide</title><g id="Layer_2" data-name="Layer 2"><g id="flat"><rect class="cls-1" x="277.9" y="14.04" width="22.71" height="578.5" transform="translate(-14.1 592.48) rotate(-89.99)"/><rect class="cls-2" x="143.29" y="-99.79" width="291.94" height="491.51" transform="translate(143.29 435.23) rotate(-90)"/><rect class="cls-3" x="161.95" y="-81.68" width="254.61" height="455.29" transform="translate(143.29 435.23) rotate(-90)"/><rect class="cls-4" x="174.21" y="-20" width="28.46" height="174.2" transform="translate(121.34 255.54) rotate(-90)"/><rect class="cls-1" x="375.84" y="-20" width="28.46" height="174.2" transform="translate(322.97 457.17) rotate(-90)"/><rect class="cls-5" x="136.39" y="46.28" width="104.1" height="174.2" transform="translate(55.06 321.82) rotate(-90)"/><rect class="cls-1" x="181.5" y="36.88" width="13.88" height="143.37" transform="translate(79.87 297.01) rotate(-90)"/><rect class="cls-6" x="145.65" y="97.53" width="13.88" height="71.69" transform="translate(19.22 285.97) rotate(-90)"/><rect class="cls-6" x="145.65" y="122.34" width="13.88" height="71.69" transform="translate(-5.59 310.78) rotate(-90)"/><rect class="cls-5" x="311.2" y="73.1" width="157.74" height="174.2" transform="translate(229.87 550.27) rotate(-90)"/><rect class="cls-2" x="161.62" y="125.15" width="53.64" height="174.2" transform="translate(-23.81 400.69) rotate(-90)"/></g></g></svg>