<svg xmlns="http://www.w3.org/2000/svg" viewBox="0 0 469.95 230.66"><defs><style>.cls-1{fill:#78d6cf;}.cls-2{fill:#fff;}.cls-3{fill:#e5dbc6;}.cls-4{fill:#414042;}.cls-5{fill:#aaacae;}</style></defs><title>lcd_display</title><g id="Layer_2" data-name="Layer 2"><g id="flat"><rect class="cls-1" width="469.95" height="230.66" rx="17.92"/><circle class="cls-2" cx="20.05" cy="19.93" r="13.19"/><circle class="cls-2" cx="449.9" cy="19.93" r="13.19"/><circle class="cls-2" cx="20.05" cy="210.73" r="13.19"/><circle class="cls-2" cx="449.9" cy="210.73" r="13.19"/><path class="cls-3" d="M41.27,11.85a6.77,6.77,0,0,0,13.54,0V0H41.27Z"/><path class="cls-3" d="M63.63,11.85a6.77,6.77,0,1,0,13.53,0V0H63.63Z"/><path class="cls-3" d="M86,11.85a6.77,6.77,0,1,0,13.54,0V0H86Z"/><path class="cls-3" d="M108.34,11.85a6.77,6.77,0,0,0,13.54,0V0H108.34Z"/><path class="cls-3" d="M130.7,11.85a6.77,6.77,0,0,0,13.54,0V0H130.7Z"/><path class="cls-3" d="M153.06,11.85a6.77,6.77,0,1,0,13.54,0V0H153.06Z"/><path class="cls-3" d="M175.42,11.85a6.77,6.77,0,1,0,13.53,0V0H175.42Z"/><path class="cls-3" d="M197.77,11.85a6.77,6.77,0,0,0,13.54,0V0H197.77Z"/><path class="cls-3" d="M220.13,11.85a6.77,6.77,0,1,0,13.54,0V0H220.13Z"/><path class="cls-3" d="M242.49,11.85a6.77,6.77,0,1,0,13.54,0V0H242.49Z"/><path class="cls-3" d="M264.85,11.85a6.77,6.77,0,1,0,13.54,0V0H264.85Z"/><path class="cls-3" d="M287.21,11.85a6.77,6.77,0,1,0,13.53,0V0H287.21Z"/><path class="cls-3" d="M309.56,11.85a6.77,6.77,0,0,0,13.54,0V0H309.56Z"/><path class="cls-3" d="M331.92,11.85a6.77,6.77,0,1,0,13.54,0V0H331.92Z"/><path class="cls-3" d="M354.28,11.85a6.77,6.77,0,1,0,13.54,0V0H354.28Z"/><path class="cls-3" d="M376.64,11.85a6.77,6.77,0,1,0,13.54,0V0H376.64Z"/><rect class="cls-4" x="47.6" y="45.59" width="376.27" height="139.47"/><polygon class="cls-5" points="469.82 135.92 423.87 152.78 423.87 77.88 469.82 94.73 469.82 135.92"/></g></g></svg>