<svg xmlns="http://www.w3.org/2000/svg" viewBox="0 0 408.1 322.95"><defs><style>.cls-1{fill:#99a1ad;}.cls-2{fill:#ffe4d2;}.cls-3{fill:#fff;}</style></defs><title>Asset 252</title><g id="Layer_2" data-name="Layer 2"><g id="flat"><path class="cls-1" d="M0,161.48a203.52,203.52,0,0,0,67.94,152A37.51,37.51,0,0,0,93,323H315.12a37.47,37.47,0,0,0,25-9.46,204,204,0,0,0,0-304,37.48,37.48,0,0,0-25-9.47H93a37.52,37.52,0,0,0-25,9.47A203.5,203.5,0,0,0,0,161.48Z"/><path class="cls-2" d="M165.7,90.27H299.16a25,25,0,0,0,0-50.08H39.93a202.93,202.93,0,0,0-11.9,18H299.16a7,7,0,0,1,0,14.08H165.7a25,25,0,1,0,0,50.08h86.22a7,7,0,0,1,0,14.09H165.7a25,25,0,1,0,0,50.08h86.22a7,7,0,1,1,0,14.08H165.7a25,25,0,1,0,0,50.08H299.16a7,7,0,0,1,0,14.09H28a205.89,205.89,0,0,0,11.9,18H299.16a25,25,0,0,0,0-50.09H165.7a7,7,0,1,1,0-14.08h86.22a25,25,0,1,0,0-50.08H165.7a7,7,0,1,1,0-14.08h86.22a25,25,0,0,0,0-50.09H165.7a7,7,0,1,1,0-14.08Z"/><circle class="cls-3" cx="70.16" cy="161.48" r="37.94"/><circle class="cls-3" cx="337.93" cy="161.48" r="37.94"/></g></g></svg>