<svg xmlns="http://www.w3.org/2000/svg" viewBox="0 0 458.69 379.62"><defs><style>.cls-1{fill:#7be1ef;}.cls-2{fill:#43c7dd;}</style></defs><title>mini_breadboard</title><g id="Layer_2" data-name="Layer 2"><g id="flat"><rect class="cls-1" width="458.69" height="379.62" rx="19.2"/><rect class="cls-2" x="29.79" y="31.09" width="17.94" height="17.94"/><rect class="cls-2" x="29.79" y="58.32" width="17.94" height="17.94"/><rect class="cls-2" x="29.79" y="85.55" width="17.94" height="17.94"/><rect class="cls-2" x="29.79" y="112.77" width="17.94" height="17.94"/><rect class="cls-2" x="29.79" y="140" width="17.94" height="17.94"/><rect class="cls-2" x="57.02" y="31.09" width="17.94" height="17.94"/><rect class="cls-2" x="57.02" y="58.32" width="17.94" height="17.94"/><rect class="cls-2" x="57.02" y="85.55" width="17.94" height="17.94"/><rect class="cls-2" x="57.02" y="112.77" width="17.94" height="17.94"/><rect class="cls-2" x="57.02" y="140" width="17.94" height="17.94"/><rect class="cls-2" x="84.24" y="31.09" width="17.94" height="17.94"/><rect class="cls-2" x="84.24" y="58.32" width="17.94" height="17.94"/><rect class="cls-2" x="84.24" y="85.55" width="17.94" height="17.94"/><rect class="cls-2" x="84.24" y="112.77" width="17.94" height="17.94"/><rect class="cls-2" x="84.24" y="140" width="17.94" height="17.94"/><rect class="cls-2" x="111.47" y="31.09" width="17.94" height="17.94"/><rect class="cls-2" x="111.47" y="58.32" width="17.94" height="17.94"/><rect class="cls-2" x="111.47" y="85.55" width="17.94" height="17.94"/><rect class="cls-2" x="111.47" y="112.77" width="17.94" height="17.94"/><rect class="cls-2" x="111.47" y="140" width="17.94" height="17.94"/><rect class="cls-2" x="138.7" y="31.09" width="17.94" height="17.94"/><rect class="cls-2" x="138.7" y="58.32" width="17.94" height="17.94"/><rect class="cls-2" x="138.7" y="85.55" width="17.94" height="17.94"/><rect class="cls-2" x="138.7" y="112.77" width="17.94" height="17.94"/><rect class="cls-2" x="138.7" y="140" width="17.94" height="17.94"/><rect class="cls-2" x="165.92" y="31.09" width="17.94" height="17.94"/><rect class="cls-2" x="165.92" y="58.32" width="17.94" height="17.94"/><rect class="cls-2" x="165.92" y="85.55" width="17.94" height="17.94"/><rect class="cls-2" x="165.92" y="112.77" width="17.94" height="17.94"/><rect class="cls-2" x="165.92" y="140" width="17.94" height="17.94"/><rect class="cls-2" x="193.15" y="31.09" width="17.94" height="17.94"/><rect class="cls-2" x="193.15" y="58.32" width="17.94" height="17.94"/><rect class="cls-2" x="193.15" y="85.55" width="17.94" height="17.94"/><rect class="cls-2" x="193.15" y="112.77" width="17.94" height="17.94"/><rect class="cls-2" x="193.15" y="140" width="17.94" height="17.94"/><rect class="cls-2" x="220.37" y="31.09" width="17.94" height="17.94"/><rect class="cls-2" x="220.37" y="58.32" width="17.94" height="17.94"/><rect class="cls-2" x="220.37" y="85.55" width="17.94" height="17.94"/><rect class="cls-2" x="220.37" y="112.77" width="17.94" height="17.94"/><rect class="cls-2" x="220.37" y="140" width="17.94" height="17.94"/><rect class="cls-2" x="247.6" y="31.09" width="17.94" height="17.94"/><rect class="cls-2" x="247.6" y="58.32" width="17.94" height="17.94"/><rect class="cls-2" x="247.6" y="85.55" width="17.94" height="17.94"/><rect class="cls-2" x="247.6" y="112.77" width="17.94" height="17.94"/><rect class="cls-2" x="247.6" y="140" width="17.94" height="17.94"/><rect class="cls-2" x="274.82" y="31.09" width="17.94" height="17.94"/><rect class="cls-2" x="274.82" y="58.32" width="17.94" height="17.94"/><rect class="cls-2" x="274.82" y="85.55" width="17.94" height="17.94"/><rect class="cls-2" x="274.82" y="112.77" width="17.94" height="17.94"/><rect class="cls-2" x="274.82" y="140" width="17.94" height="17.94"/><rect class="cls-2" x="302.05" y="31.09" width="17.94" height="17.94"/><rect class="cls-2" x="302.05" y="58.32" width="17.94" height="17.94"/><rect class="cls-2" x="302.05" y="85.55" width="17.94" height="17.94"/><rect class="cls-2" x="302.05" y="112.77" width="17.94" height="17.94"/><rect class="cls-2" x="302.05" y="140" width="17.94" height="17.94"/><rect class="cls-2" x="329.28" y="31.09" width="17.94" height="17.94"/><rect class="cls-2" x="329.28" y="58.32" width="17.94" height="17.94"/><rect class="cls-2" x="329.28" y="85.55" width="17.94" height="17.94"/><rect class="cls-2" x="329.28" y="112.77" width="17.94" height="17.94"/><rect class="cls-2" x="329.28" y="140" width="17.94" height="17.94"/><rect class="cls-2" x="356.5" y="31.09" width="17.94" height="17.94"/><rect class="cls-2" x="356.5" y="58.32" width="17.94" height="17.94"/><rect class="cls-2" x="356.5" y="85.55" width="17.94" height="17.94"/><rect class="cls-2" x="356.5" y="112.77" width="17.94" height="17.94"/><rect class="cls-2" x="356.5" y="140" width="17.94" height="17.94"/><rect class="cls-2" x="383.73" y="31.09" width="17.94" height="17.94"/><rect class="cls-2" x="383.73" y="58.32" width="17.94" height="17.94"/><rect class="cls-2" x="383.73" y="85.55" width="17.94" height="17.94"/><rect class="cls-2" x="383.73" y="112.77" width="17.94" height="17.94"/><rect class="cls-2" x="383.73" y="140" width="17.94" height="17.94"/><rect class="cls-2" x="410.95" y="31.09" width="17.94" height="17.94"/><rect class="cls-2" x="410.95" y="58.32" width="17.94" height="17.94"/><rect class="cls-2" x="410.95" y="85.55" width="17.94" height="17.94"/><rect class="cls-2" x="410.95" y="112.77" width="17.94" height="17.94"/><rect class="cls-2" x="410.95" y="140" width="17.94" height="17.94"/><rect class="cls-2" x="356.5" y="221.68" width="17.94" height="17.94"/><rect class="cls-2" x="356.5" y="248.9" width="17.94" height="17.94"/><rect class="cls-2" x="356.5" y="276.13" width="17.94" height="17.94"/><rect class="cls-2" x="356.5" y="303.35" width="17.94" height="17.94"/><rect class="cls-2" x="356.5" y="330.58" width="17.94" height="17.94"/><rect class="cls-2" x="383.73" y="221.68" width="17.94" height="17.94"/><rect class="cls-2" x="383.73" y="248.9" width="17.94" height="17.94"/><rect class="cls-2" x="383.73" y="276.13" width="17.94" height="17.94"/><rect class="cls-2" x="383.73" y="303.35" width="17.94" height="17.94"/><rect class="cls-2" x="383.73" y="330.58" width="17.94" height="17.94"/><rect class="cls-2" x="410.95" y="221.68" width="17.94" height="17.94"/><rect class="cls-2" x="410.95" y="248.9" width="17.94" height="17.94"/><rect class="cls-2" x="410.95" y="276.13" width="17.94" height="17.94"/><rect class="cls-2" x="410.95" y="303.35" width="17.94" height="17.94"/><rect class="cls-2" x="410.95" y="330.58" width="17.94" height="17.94"/><rect class="cls-2" x="29.79" y="221.68" width="17.94" height="17.94"/><rect class="cls-2" x="29.79" y="248.9" width="17.94" height="17.94"/><rect class="cls-2" x="29.79" y="276.13" width="17.94" height="17.94"/><rect class="cls-2" x="29.79" y="303.35" width="17.94" height="17.94"/><rect class="cls-2" x="29.79" y="330.58" width="17.94" height="17.94"/><rect class="cls-2" x="57.02" y="221.68" width="17.94" height="17.94"/><rect class="cls-2" x="57.02" y="248.9" width="17.94" height="17.94"/><rect class="cls-2" x="57.02" y="276.13" width="17.94" height="17.94"/><rect class="cls-2" x="57.02" y="303.35" width="17.94" height="17.94"/><rect class="cls-2" x="57.02" y="330.58" width="17.94" height="17.94"/><rect class="cls-2" x="84.24" y="221.68" width="17.94" height="17.94"/><rect class="cls-2" x="84.24" y="248.9" width="17.94" height="17.94"/><rect class="cls-2" x="84.24" y="276.13" width="17.94" height="17.94"/><rect class="cls-2" x="84.24" y="303.35" width="17.94" height="17.94"/><rect class="cls-2" x="84.24" y="330.58" width="17.94" height="17.94"/><rect class="cls-2" x="111.47" y="221.68" width="17.94" height="17.94"/><rect class="cls-2" x="111.47" y="248.9" width="17.94" height="17.94"/><rect class="cls-2" x="111.47" y="276.13" width="17.94" height="17.94"/><rect class="cls-2" x="111.47" y="303.35" width="17.94" height="17.94"/><rect class="cls-2" x="111.47" y="330.58" width="17.94" height="17.94"/><rect class="cls-2" x="138.7" y="221.68" width="17.94" height="17.94"/><rect class="cls-2" x="138.7" y="248.9" width="17.94" height="17.94"/><rect class="cls-2" x="138.7" y="276.13" width="17.94" height="17.94"/><rect class="cls-2" x="138.7" y="303.35" width="17.94" height="17.94"/><rect class="cls-2" x="138.7" y="330.58" width="17.94" height="17.94"/><rect class="cls-2" x="165.92" y="221.68" width="17.94" height="17.94"/><rect class="cls-2" x="165.92" y="248.9" width="17.94" height="17.94"/><rect class="cls-2" x="165.92" y="276.13" width="17.94" height="17.94"/><rect class="cls-2" x="165.92" y="303.35" width="17.94" height="17.94"/><rect class="cls-2" x="165.92" y="330.58" width="17.94" height="17.94"/><rect class="cls-2" x="193.15" y="221.68" width="17.94" height="17.94"/><rect class="cls-2" x="193.15" y="248.9" width="17.94" height="17.94"/><rect class="cls-2" x="193.15" y="276.13" width="17.94" height="17.94"/><rect class="cls-2" x="193.15" y="303.35" width="17.94" height="17.94"/><rect class="cls-2" x="193.15" y="330.58" width="17.94" height="17.94"/><rect class="cls-2" x="220.37" y="221.68" width="17.94" height="17.94"/><rect class="cls-2" x="220.37" y="248.9" width="17.94" height="17.94"/><rect class="cls-2" x="220.37" y="276.13" width="17.94" height="17.94"/><rect class="cls-2" x="220.37" y="303.35" width="17.94" height="17.94"/><rect class="cls-2" x="220.37" y="330.58" width="17.94" height="17.94"/><rect class="cls-2" x="247.6" y="221.68" width="17.94" height="17.94"/><rect class="cls-2" x="247.6" y="248.9" width="17.94" height="17.94"/><rect class="cls-2" x="247.6" y="276.13" width="17.94" height="17.94"/><rect class="cls-2" x="247.6" y="303.35" width="17.94" height="17.94"/><rect class="cls-2" x="247.6" y="330.58" width="17.94" height="17.94"/><rect class="cls-2" x="274.82" y="221.68" width="17.94" height="17.94"/><rect class="cls-2" x="274.82" y="248.9" width="17.94" height="17.94"/><rect class="cls-2" x="274.82" y="276.13" width="17.94" height="17.94"/><rect class="cls-2" x="274.82" y="303.35" width="17.94" height="17.94"/><rect class="cls-2" x="274.82" y="330.58" width="17.94" height="17.94"/><rect class="cls-2" x="302.05" y="221.68" width="17.94" height="17.94"/><rect class="cls-2" x="302.05" y="248.9" width="17.94" height="17.94"/><rect class="cls-2" x="302.05" y="276.13" width="17.94" height="17.94"/><rect class="cls-2" x="302.05" y="303.35" width="17.94" height="17.94"/><rect class="cls-2" x="302.05" y="330.58" width="17.94" height="17.94"/><rect class="cls-2" x="329.28" y="221.68" width="17.94" height="17.94"/><rect class="cls-2" x="329.28" y="248.9" width="17.94" height="17.94"/><rect class="cls-2" x="329.28" y="276.13" width="17.94" height="17.94"/><rect class="cls-2" x="329.28" y="303.35" width="17.94" height="17.94"/><rect class="cls-2" x="329.28" y="330.58" width="17.94" height="17.94"/><rect class="cls-2" x="29.79" y="167.22" width="399.1" height="45.17"/></g></g></svg>