<svg xmlns="http://www.w3.org/2000/svg" viewBox="0 0 207.14 454.19"><defs><style>.cls-1{fill:#c1c4c6;}.cls-2{fill:#e6eaed;}.cls-3{fill:#78d6cf;}.cls-4{fill:#58595b;}.cls-5{fill:#fff;}</style></defs><title>moisture_sensor</title><g id="Layer_2" data-name="Layer 2"><g id="flat"><path class="cls-1" d="M4.14,408.57l14.28,34.36c6.24,15,27.49,15,33.72,0l14.28-34.36a54.07,54.07,0,0,0,4.15-20.77V190.63H0V387.8A54.25,54.25,0,0,0,4.14,408.57Z"/><path class="cls-2" d="M20.51,403.48l10.66,25.66a4.46,4.46,0,0,0,8.23,0l10.66-25.66a49.15,49.15,0,0,0,3.76-18.85v-194H16.75v194A49.15,49.15,0,0,0,20.51,403.48Z"/><path class="cls-1" d="M140.72,408.57,155,442.93c6.23,15,27.48,15,33.72,0L203,408.57a54.25,54.25,0,0,0,4.14-20.77V190.63H136.57V387.8A54.07,54.07,0,0,0,140.72,408.57Z"/><path class="cls-2" d="M157.08,403.48l10.66,25.66a4.46,4.46,0,0,0,8.23,0l10.66-25.66a49.15,49.15,0,0,0,3.76-18.85v-194H153.32v194A49.15,49.15,0,0,0,157.08,403.48Z"/><path class="cls-3" d="M70.57,190.63a33,33,0,0,1,66,0h70.57V93.8a35.57,35.57,0,0,0-35.57-35.56h-136A35.56,35.56,0,0,0,0,93.8v96.83Z"/><rect class="cls-4" x="64.89" y="58.25" width="77.36" height="39.14" transform="translate(207.14 155.65) rotate(180)"/><rect class="cls-1" x="81.45" width="12.91" height="75.97" transform="translate(175.82 75.97) rotate(180)"/><rect class="cls-1" x="112.77" width="12.91" height="75.97" transform="translate(238.45 75.97) rotate(180)"/><circle class="cls-5" cx="36.17" cy="97.4" r="19.43"/><circle class="cls-5" cx="170.97" cy="97.4" r="19.43"/></g></g></svg>