<svg xmlns="http://www.w3.org/2000/svg" viewBox="0 0 164.53 223.52"><defs><style>.cls-1{fill:#78d6cf;}.cls-2{fill:#fff;}.cls-3{fill:#58595b;}.cls-4{fill:#c1c4c6;}.cls-5{fill:#e6eaed;}.cls-6{fill:#cdd1d3;}.cls-7{fill:#65c9c0;}</style></defs><title>pir_sensor</title><g id="Layer_2" data-name="Layer 2"><g id="flat"><path class="cls-1" d="M164.53,17.92V147.55a17.92,17.92,0,0,1-17.92,17.92H17.92A17.92,17.92,0,0,1,0,147.55V17.92A17.92,17.92,0,0,1,17.92,0H44.49V55.18H120V0h26.57A17.92,17.92,0,0,1,164.53,17.92Z"/><circle class="cls-2" cx="20.05" cy="20.05" r="13.19"/><circle class="cls-2" cx="144.48" cy="20.05" r="13.19"/><circle class="cls-2" cx="20.05" cy="145.22" r="13.19"/><circle class="cls-2" cx="144.48" cy="145.22" r="13.19"/><rect class="cls-3" x="44.49" y="126.13" width="75.54" height="39.14"/><rect class="cls-4" x="75.81" y="147.55" width="12.91" height="75.97"/><rect class="cls-4" x="44.49" y="147.55" width="12.91" height="75.97"/><rect class="cls-4" x="107.12" y="147.55" width="12.91" height="75.97"/><path class="cls-5" d="M82.26,0h0A37.77,37.77,0,0,1,120,37.77v6.46a0,0,0,0,1,0,0H44.49a0,0,0,0,1,0,0V37.77A37.77,37.77,0,0,1,82.26,0Z"/><rect class="cls-6" x="44.49" y="44.23" width="75.54" height="10.96"/><rect class="cls-5" x="44.49" y="55.18" width="10.96" height="10.96"/><rect class="cls-7" x="44.49" y="82.74" width="21.91" height="10.96"/><rect class="cls-7" x="44.49" y="102.24" width="21.91" height="10.96"/><rect class="cls-7" x="98.12" y="82.74" width="21.91" height="10.96"/><rect class="cls-7" x="98.12" y="102.24" width="21.91" height="10.96"/><rect class="cls-5" x="109.08" y="55.18" width="10.96" height="10.96"/></g></g></svg>