<svg xmlns="http://www.w3.org/2000/svg" viewBox="0 0 267.18 384.43"><defs><style>.cls-1{fill:#ff9b73;}.cls-2{fill:#7c7d7f;}.cls-3{fill:#fff;}.cls-4{fill:#d6d6d6;}</style></defs><title>potentiometer</title><g id="Layer_2" data-name="Layer 2"><g id="flat"><path class="cls-1" d="M133.84,0C60.23-.13,0,61.12,0,134.74V288.07a30.51,30.51,0,0,0,30.5,30.51H236.68a30.5,30.5,0,0,0,30.5-30.51V133.59A133.58,133.58,0,0,0,133.84,0Z"/><circle class="cls-2" cx="133.59" cy="133.59" r="104.26"/><path class="cls-3" d="M133.59,196.22a62.65,62.65,0,0,0,59.09-41.82H74.51A62.65,62.65,0,0,0,133.59,196.22Z"/><path class="cls-3" d="M133.59,71a62.66,62.66,0,0,0-59.08,41.83H192.68A62.66,62.66,0,0,0,133.59,71Z"/><path class="cls-4" d="M192.68,112.79H74.51a62.74,62.74,0,0,0,0,41.61H192.68a62.91,62.91,0,0,0,0-41.61Z"/><circle class="cls-3" cx="62.04" cy="275.75" r="21.63"/><circle class="cls-3" cx="133.59" cy="275.75" r="21.63"/><circle class="cls-3" cx="205.14" cy="275.75" r="21.63"/><path class="cls-4" d="M74.22,344.93V318.58H49.86v26.35a21.63,21.63,0,1,0,24.36,0Z"/><path class="cls-4" d="M145.77,344.93V318.58H121.41v26.35a21.63,21.63,0,1,0,24.36,0Z"/><path class="cls-4" d="M217.32,344.93V318.58H193v26.35a21.63,21.63,0,1,0,24.36,0Z"/></g></g></svg>