<svg xmlns="http://www.w3.org/2000/svg" viewBox="0 0 164.53 322.52"><defs><style>.cls-1{fill:#78d6cf;}.cls-2{fill:#fff;}.cls-3{fill:#58595b;}.cls-4{fill:#c1c4c6;}.cls-5{fill:#cdcfd1;}.cls-6{fill:#6a6a6a;}.cls-7{fill:#a7a9ac;}</style></defs><title>potentiometer_unit</title><g id="Layer_2" data-name="Layer 2"><g id="flat"><rect class="cls-1" x="-49.97" y="49.97" width="264.47" height="164.53" rx="17.92" transform="translate(-49.97 214.5) rotate(-90)"/><circle class="cls-2" cx="20.05" cy="20.05" r="13.19"/><circle class="cls-2" cx="144.48" cy="20.05" r="13.19"/><circle class="cls-2" cx="20.05" cy="244.22" r="13.19"/><circle class="cls-2" cx="144.48" cy="244.22" r="13.19"/><rect class="cls-3" x="44.49" y="225.12" width="75.54" height="39.14"/><rect class="cls-4" x="75.81" y="246.55" width="12.91" height="75.97"/><rect class="cls-4" x="44.49" y="246.55" width="12.91" height="75.97"/><rect class="cls-4" x="107.12" y="246.55" width="12.91" height="75.97"/><rect class="cls-5" y="46.93" width="164.53" height="164.53" transform="translate(-46.93 211.46) rotate(-90)"/><circle class="cls-6" cx="82.26" cy="129.19" r="54.19"/><path class="cls-2" d="M103.61,107.84A30.22,30.22,0,0,0,68,102.58l40.88,40.88A30.19,30.19,0,0,0,103.61,107.84Z"/><path class="cls-2" d="M60.91,150.54a30.19,30.19,0,0,0,35.62,5.26L55.65,114.92A30.22,30.22,0,0,0,60.91,150.54Z"/><path class="cls-7" d="M108.87,143.46,68,102.58a30.08,30.08,0,0,0-7.08,5.26,30.64,30.64,0,0,0-5.26,7.08L96.53,155.8a29.67,29.67,0,0,0,7.08-5.26A30.08,30.08,0,0,0,108.87,143.46Z"/><circle class="cls-7" cx="27.27" cy="74.2" r="12.52"/><circle class="cls-7" cx="137.26" cy="74.2" r="12.52"/><circle class="cls-7" cx="27.27" cy="184.19" r="12.52"/><circle class="cls-7" cx="137.26" cy="184.19" r="12.52"/></g></g></svg>