<svg xmlns="http://www.w3.org/2000/svg" viewBox="0 0 164.53 322.52"><defs><style>.cls-1{fill:#78d6cf;}.cls-2{fill:#fff;}.cls-3{fill:#58595b;}.cls-4{fill:#c1c4c6;}.cls-5{fill:#37b2d3;}.cls-6{fill:#399ed1;}</style></defs><title>relay_module</title><g id="Layer_2" data-name="Layer 2"><g id="flat"><rect class="cls-1" x="-49.97" y="49.97" width="264.47" height="164.53" rx="17.92" transform="translate(-49.97 214.5) rotate(-90)"/><circle class="cls-2" cx="20.05" cy="20.05" r="13.19"/><circle class="cls-2" cx="144.48" cy="20.05" r="13.19"/><circle class="cls-2" cx="20.05" cy="244.22" r="13.19"/><circle class="cls-2" cx="144.48" cy="244.22" r="13.19"/><rect class="cls-3" x="44.49" y="225.12" width="75.54" height="39.14"/><rect class="cls-4" x="75.81" y="246.55" width="12.91" height="75.97"/><rect class="cls-4" x="44.49" y="246.55" width="12.91" height="75.97"/><rect class="cls-4" x="107.12" y="246.55" width="12.91" height="75.97"/><rect class="cls-5" x="33.24" width="98.05" height="57.41"/><rect class="cls-5" x="33.24" y="57.41" width="98.05" height="144.13"/><circle class="cls-2" cx="53.14" cy="30.69" r="10.65"/><path class="cls-2" d="M42.5,30.69a10.52,10.52,0,0,0,.67,3.7H63.12a10.52,10.52,0,0,0,0-7.39H43.17A10.5,10.5,0,0,0,42.5,30.69Z"/><circle class="cls-2" cx="82.26" cy="30.69" r="10.65"/><path class="cls-2" d="M71.62,30.69a10.52,10.52,0,0,0,.67,3.7H92.24a10.52,10.52,0,0,0,0-7.39H72.29A10.5,10.5,0,0,0,71.62,30.69Z"/><rect class="cls-6" x="33.24" y="57.41" width="98.05" height="23.59"/><circle class="cls-2" cx="111.38" cy="30.69" r="10.65"/><path class="cls-2" d="M100.73,30.69a10.52,10.52,0,0,0,.68,3.7h20a10.52,10.52,0,0,0,0-7.39h-20A10.51,10.51,0,0,0,100.73,30.69Z"/></g></g></svg>