<svg xmlns="http://www.w3.org/2000/svg" viewBox="0 0 459.14 101.82"><defs><style>.cls-1{fill:#d6d6d6;}.cls-2{fill:#ffe4d2;}.cls-3{fill:#fc9956;}.cls-4{fill:#a37454;}.cls-5{fill:#ccb69f;}</style></defs><title>resistor_unit</title><g id="Layer_2" data-name="Layer 2"><g id="flat"><rect class="cls-1" y="37.09" width="459.14" height="27.65"/><path class="cls-2" d="M342.29,101.82H309.11A48.3,48.3,0,0,1,289,97.45h0A48.3,48.3,0,0,0,269,93.08H201.1A48.3,48.3,0,0,0,181,97.45h0a48.3,48.3,0,0,1-20.08,4.37H127.76A48.32,48.32,0,0,1,79.44,53.5V48.32A48.32,48.32,0,0,1,127.76,0h33.18A48.3,48.3,0,0,1,181,4.37h0A48.3,48.3,0,0,0,201.1,8.74H269A48.3,48.3,0,0,0,289,4.37h0A48.3,48.3,0,0,1,309.11,0h33.18a48.33,48.33,0,0,1,48.33,48.32V53.5A48.32,48.32,0,0,1,342.29,101.82Z"/><rect class="cls-3" x="127.67" width="23.51" height="101.82"/><path class="cls-3" d="M181.13,4.42v93a48.42,48.42,0,0,1,20-4.32h3.54V8.74H201.1A48.42,48.42,0,0,1,181.13,4.42Z"/><rect class="cls-4" x="234.59" y="8.74" width="23.51" height="84.34"/><rect class="cls-5" x="317.93" width="23.51" height="101.82"/></g></g></svg>