<svg xmlns="http://www.w3.org/2000/svg" viewBox="0 0 387.78 486.07"><defs><style>.cls-1{fill:#414042;}.cls-2{fill:#58595b;}.cls-3{fill:#fff;}.cls-4{fill:#ddd;}.cls-5{fill:#6d6e71;}.cls-6{fill:#e6e7e8;}.cls-7{fill:#a7a9ac;}</style></defs><title>servo</title><g id="Layer_2" data-name="Layer 2"><g id="flat"><rect class="cls-1" x="-49.15" y="136.55" width="486.07" height="212.96" transform="translate(-49.15 436.92) rotate(-90)"/><rect class="cls-2" x="153.99" y="-66.58" width="79.79" height="212.96" transform="translate(153.99 233.78) rotate(-90)"/><rect class="cls-2" x="176.06" y="39.88" width="35.65" height="212.96" transform="translate(47.52 340.25) rotate(-90)"/><rect class="cls-2" x="153.99" y="339.69" width="79.79" height="212.96" transform="translate(-252.29 640.06) rotate(-90)"/><circle class="cls-3" cx="193.89" cy="39.9" r="23.15"/><circle class="cls-2" cx="193.89" cy="292.27" r="88.93"/><rect class="cls-4" y="250.62" width="387.78" height="83.3"/><circle class="cls-5" cx="115.79" cy="292.27" r="13.86"/><circle class="cls-3" cx="73.55" cy="292.27" r="13.86"/><circle class="cls-3" cx="31.31" cy="292.27" r="13.86"/><circle class="cls-3" cx="356.47" cy="292.27" r="13.86"/><circle class="cls-3" cx="314.23" cy="292.27" r="13.86"/><circle class="cls-5" cx="271.98" cy="292.27" r="13.86"/><circle class="cls-4" cx="193.89" cy="292.27" r="59.81"/><circle class="cls-6" cx="193.89" cy="292.27" r="41.65"/><circle class="cls-7" cx="193.89" cy="292.27" r="25.77"/></g></g></svg>