<svg xmlns="http://www.w3.org/2000/svg" viewBox="0 0 218.49 384.79"><defs><style>.cls-1{fill:#414042;}.cls-2{fill:#d6d6d6;}.cls-3{fill:#58595b;}</style></defs><title>shift_register</title><g id="Layer_2" data-name="Layer 2"><g id="flat"><rect class="cls-1" x="31.69" width="155.11" height="384.79" transform="translate(218.49 384.79) rotate(180)"/><rect class="cls-2" y="20.51" width="19.76" height="20.25" transform="translate(19.76 61.28) rotate(180)"/><rect class="cls-2" y="60.99" width="19.76" height="20.25" transform="translate(19.76 142.22) rotate(180)"/><rect class="cls-2" y="101.46" width="19.76" height="20.25" transform="translate(19.76 223.17) rotate(180)"/><rect class="cls-2" y="141.93" width="19.76" height="20.25" transform="translate(19.76 304.11) rotate(180)"/><rect class="cls-2" y="182.4" width="19.76" height="20.25" transform="translate(19.76 385.05) rotate(180)"/><rect class="cls-2" y="222.87" width="19.76" height="20.25" transform="translate(19.76 466) rotate(180)"/><rect class="cls-2" y="263.34" width="19.76" height="20.25" transform="translate(19.76 546.94) rotate(180)"/><rect class="cls-2" y="303.82" width="19.76" height="20.25" transform="translate(19.76 627.88) rotate(180)"/><rect class="cls-2" y="344.29" width="19.76" height="20.25" transform="translate(19.76 708.83) rotate(180)"/><rect class="cls-2" x="198.73" y="20.51" width="19.76" height="20.25" transform="translate(417.22 61.28) rotate(180)"/><rect class="cls-2" x="198.73" y="60.99" width="19.76" height="20.25" transform="translate(417.22 142.22) rotate(180)"/><rect class="cls-2" x="198.73" y="101.46" width="19.76" height="20.25" transform="translate(417.22 223.17) rotate(180)"/><rect class="cls-2" x="198.73" y="141.93" width="19.76" height="20.25" transform="translate(417.22 304.11) rotate(180)"/><rect class="cls-2" x="198.73" y="182.4" width="19.76" height="20.25" transform="translate(417.22 385.05) rotate(180)"/><rect class="cls-2" x="198.73" y="222.87" width="19.76" height="20.25" transform="translate(417.22 466) rotate(180)"/><rect class="cls-2" x="198.73" y="263.34" width="19.76" height="20.25" transform="translate(417.22 546.94) rotate(180)"/><rect class="cls-2" x="198.73" y="303.82" width="19.76" height="20.25" transform="translate(417.22 627.88) rotate(180)"/><rect class="cls-2" x="198.73" y="344.29" width="19.76" height="20.25" transform="translate(417.22 708.83) rotate(180)"/><circle class="cls-3" cx="109.24" cy="313.94" r="39.15"/></g></g></svg>