<svg xmlns="http://www.w3.org/2000/svg" viewBox="0 0 164.53 322.52"><defs><style>.cls-1{fill:#78d6cf;}.cls-2{fill:#fff;}.cls-3{fill:#58595b;}.cls-4{fill:#c1c4c6;}.cls-5{fill:#43c7dd;}.cls-6{fill:#cdcfd1;}</style></defs><title>sound_sensor</title><g id="Layer_2" data-name="Layer 2"><g id="flat"><rect class="cls-1" x="-49.97" y="49.97" width="264.47" height="164.53" rx="17.92" transform="translate(-49.97 214.5) rotate(-90)"/><circle class="cls-2" cx="20.05" cy="20.05" r="13.19"/><circle class="cls-2" cx="144.48" cy="20.05" r="13.19"/><circle class="cls-2" cx="20.05" cy="244.22" r="13.19"/><circle class="cls-2" cx="144.48" cy="244.22" r="13.19"/><rect class="cls-3" x="44.49" y="225.12" width="75.54" height="39.14"/><rect class="cls-4" x="75.81" y="246.55" width="12.91" height="75.97"/><rect class="cls-4" x="44.49" y="246.55" width="12.91" height="75.97"/><rect class="cls-4" x="107.12" y="246.55" width="12.91" height="75.97"/><circle class="cls-3" cx="82.26" cy="44.63" r="37.77"/><rect class="cls-5" x="82.26" y="99.61" width="82.26" height="82.26"/><rect class="cls-3" y="99.61" width="82.26" height="82.26"/><circle class="cls-6" cx="123.4" cy="140.74" r="25.1"/><path class="cls-2" d="M130,116.54a25.18,25.18,0,0,0-13.27,0v17.57H99.19a25.18,25.18,0,0,0,0,13.27h17.57v17.56a24.91,24.91,0,0,0,13.27,0V147.38H147.6a25.18,25.18,0,0,0,0-13.27H130Z"/></g></g></svg>