<svg xmlns="http://www.w3.org/2000/svg" viewBox="0 0 204.25 278.56"><defs><style>.cls-1{fill:#7be1ef;}.cls-2{fill:#43c7dd;}</style></defs><title>temperature_sensor</title><g id="Layer_2" data-name="Layer 2"><g id="flat"><rect class="cls-1" width="204.25" height="278.56" rx="17.58"/><rect class="cls-2" x="50.68" y="54.62" width="22.66" height="22.66"/><rect class="cls-2" y="94.74" width="33.22" height="22.66"/><rect class="cls-2" x="171.03" y="94.74" width="33.22" height="22.66"/><rect class="cls-2" y="134.85" width="33.22" height="22.66"/><rect class="cls-2" x="171.03" y="134.85" width="33.22" height="22.66"/><rect class="cls-2" y="215.09" width="33.22" height="22.66"/><rect class="cls-2" x="171.03" y="215.09" width="33.22" height="22.66"/><rect class="cls-2" x="90.79" y="54.62" width="22.66" height="22.66"/><rect class="cls-2" x="130.91" y="54.62" width="22.66" height="22.66"/><rect class="cls-2" x="50.68" y="94.74" width="22.66" height="22.66"/><rect class="cls-2" x="90.79" y="94.74" width="22.66" height="22.66"/><rect class="cls-2" x="130.91" y="94.74" width="22.66" height="22.66"/><rect class="cls-2" x="50.68" y="134.85" width="22.66" height="22.66"/><rect class="cls-2" x="90.79" y="134.85" width="22.66" height="22.66"/><rect class="cls-2" x="130.91" y="134.85" width="22.66" height="22.66"/><rect class="cls-2" x="50.68" y="174.97" width="22.66" height="22.66"/><rect class="cls-2" x="90.79" y="174.97" width="22.66" height="22.66"/><rect class="cls-2" x="130.91" y="174.97" width="22.66" height="22.66"/><rect class="cls-2" x="50.68" y="215.09" width="22.66" height="22.66"/><rect class="cls-2" x="90.79" y="215.09" width="22.66" height="22.66"/><rect class="cls-2" x="130.91" y="215.09" width="22.66" height="22.66"/></g></g></svg>