<svg xmlns="http://www.w3.org/2000/svg" viewBox="0 0 164.53 322.52"><defs><style>.cls-1{fill:#78d6cf;}.cls-2{fill:#fff;}.cls-3{fill:#58595b;}.cls-4{fill:#c1c4c6;}.cls-5{fill:#fafcfc;}</style></defs><title>touch_sensor</title><g id="Layer_2" data-name="Layer 2"><g id="flat"><rect class="cls-1" x="-49.97" y="49.97" width="264.47" height="164.53" rx="17.92" transform="translate(-49.97 214.5) rotate(-90)"/><circle class="cls-2" cx="20.05" cy="20.05" r="13.19"/><circle class="cls-2" cx="144.48" cy="20.05" r="13.19"/><circle class="cls-2" cx="20.05" cy="244.22" r="13.19"/><circle class="cls-2" cx="144.48" cy="244.22" r="13.19"/><rect class="cls-3" x="44.49" y="225.12" width="75.54" height="39.14"/><rect class="cls-4" x="75.81" y="246.55" width="12.91" height="75.97"/><rect class="cls-4" x="44.49" y="246.55" width="12.91" height="75.97"/><rect class="cls-4" x="107.12" y="246.55" width="12.91" height="75.97"/><path class="cls-5" d="M82.26,175.79A68.72,68.72,0,1,1,151,107.08,68.78,68.78,0,0,1,82.26,175.79Zm0-124.43A55.72,55.72,0,1,0,138,107.08,55.77,55.77,0,0,0,82.26,51.36Z"/></g></g></svg>